<?xml version="1.0" standalone="no"?>
<!DOCTYPE svg PUBLIC "-//W3C//DTD SVG 1.1//EN" "http://www.w3.org/Graphics/SVG/1.1/DTD/svg11.dtd" >
<svg xmlns="http://www.w3.org/2000/svg">
<metadata></metadata>
<defs>
<font id="dashedlinesregular" horiz-adv-x="1157" >
<font-face units-per-em="2048" ascent="1556" descent="-492" />
<missing-glyph horiz-adv-x="578" />
<glyph horiz-adv-x="2048" />
<glyph horiz-adv-x="2048" />
<glyph unicode="&#xd;" horiz-adv-x="578" />
<glyph unicode=" "  horiz-adv-x="578" />
<glyph unicode="&#x09;" horiz-adv-x="578" />
<glyph unicode="&#xa0;" horiz-adv-x="578" />
<glyph unicode="!" horiz-adv-x="588" d="M198 100v12q0 81 108 96q104 -18 104 -96v-12q-13 -104 -104 -104h-4q-104 13 -104 104zM262 376v144l8 8h56l8 -8v-144l-8 -8h-56zM262 688v144l8 8h56l8 -8v-144l-8 -8h-56zM262 996v144l8 8h56l8 -8v-144l-8 -8h-56zM262 1308v140l8 8h56l8 -8v-140l-8 -8h-56z" />
<glyph unicode="&#x22;" horiz-adv-x="569" d="M98 881v553h101v-553h-101zM371 881v553h102v-553h-102z" />
<glyph unicode="#" horiz-adv-x="1575" d="M133 500v59l9 9h121l9 -9v-59l-9 -9h-121zM237 877v59l9 9h125l9 -9v-59l-9 -9h-125zM328 27q45 133 52 137l65 -28q-42 -129 -56 -136zM406 500v59l9 9h95q9 0 52 136l4 5h5q60 -22 60 -32q-40 -123 -52 -132l-30 9v-54l-9 -9h-125zM423 304q41 120 52 132l61 -23 q-38 -140 -52 -140q-61 19 -61 31zM514 877v59l9 9h117l4 4q14 32 22 32l61 -27q-45 -133 -52 -136l-65 27l8 23h-95zM683 500v59l9 9h126l8 -9v-59l-8 -9h-126zM705 27l48 137q63 -22 65 -32q-42 -129 -52 -132q-61 18 -61 27zM705 1117q38 120 52 137q61 -15 61 -32 l-48 -132zM792 877v59l8 9h126l9 -9v-59l-9 -9h-126zM796 300l52 136l65 -27q-43 -133 -52 -136zM800 1394q19 64 31 64l60 -27l-26 -68q-63 23 -65 31zM891 572q36 114 52 137l61 -23l-35 -118h126l9 -9v-59l-9 -9h-126l-8 9v45q-59 17 -70 27zM987 849q42 129 52 132 q60 -16 60 -36h104l9 -9v-59l-9 -9h-134q-11 -50 -22 -50q-60 22 -60 31zM1082 1113q34 141 56 141q56 -21 57 -28q-38 -119 -52 -136zM1177 1385v5q0 35 26 68q61 -18 61 -27q-13 -64 -30 -64zM1238 500v59l9 9h112l9 -9v-59l-9 -9h-112zM1346 877v59l9 9h108l9 -9v-59 l-9 -9h-108z" />
<glyph unicode="$" d="M152 432h139v-16q0 -141 72.5 -214t211.5 -73q133 0 210 72.5t77 195.5q0 195 -309 297q-20 7 -30 10q-191 63 -263 144t-72 219q0 146 90 252.5t230 124.5v213h143v-213q148 -17 232 -112t92 -253h-144v4q0 110 -66.5 176t-176.5 66q-119 0 -188.5 -68t-69.5 -182 q0 -159 284 -257q59 -20 91 -32q164 -60 233.5 -144.5t69.5 -221.5q0 -172 -98.5 -287t-258.5 -129v-246h-143v246q-160 17 -258 135t-98 293z" />
<glyph unicode="%" horiz-adv-x="1796" d="M110 1093v14l9 9h70q9 -66 37 -134l-60 -37h-10q-46 92 -46 148zM152 1278v4q13 59 111 130h4q42 -46 42 -69q-70 -48 -83 -93h-5zM286 824l42 70q59 -28 101 -28h19q14 -3 14 -37v-37l-9 -9h-24q-69 0 -143 41zM434 1435v23l9 10h14q139 -10 162 -51l-37 -65 q-62 32 -120 32h-14q-14 0 -14 51zM480 -4q47 101 60 101q65 -29 65 -37q-50 -106 -60 -106q-65 28 -65 42zM587 903q29 9 97 92l65 -32q0 -44 -116 -130h-9zM605 241q65 136 74 139l70 -37q-65 -139 -79 -139q-65 29 -65 37zM679 1264l70 32q46 -78 46 -166l-5 -5h-69 q-7 0 -23 93q-8 0 -19 46zM749 523q62 135 78 135l61 -28v-5q0 -19 -70 -143q-69 31 -69 41zM892 806q67 134 74 134l70 -37l-70 -139q-74 23 -74 42zM1008 301l5 5h78q0 -47 33 -130q-50 -41 -65 -41q-51 82 -51 166zM1036 1074v5l65 139h4l70 -28v-5l-65 -139h-5z M1050 468q0 49 115 134h5l42 -65q-93 -79 -93 -102zM1179 1366q64 134 74 134q65 -28 65 -42q-63 -134 -74 -134q-65 28 -65 42zM1188 10q29 74 42 74q52 -28 97 -28h19l14 -14v-55l4 -5v-4l-4 -5h-33q-57 0 -139 37zM1332 653l5 5h18q95 0 167 -47q-21 -47 -42 -69 q-57 32 -120 32h-14l-9 10v37zM1485 88q49 30 97 97h5l64 -37q-80 -125 -129 -125zM1577 449q58 37 74 37q42 -86 42 -148v-14l-9 -9h-60q-13 0 -24 83z" />
<glyph unicode="&#x26;" horiz-adv-x="1421" d="M138 348l64 12l40 -120q-52 -28 -64 -28q-40 91 -40 136zM142 500q37 117 60 128l52 -32v-4q-43 -112 -48 -112q-64 9 -64 20zM170 1164q0 32 48 128q60 -21 60 -40q-16 -28 -40 -108q-68 5 -68 20zM186 1004q46 28 64 28q1 -16 76 -80v-4l-36 -52q-72 41 -104 108z M274 96q1 9 44 52l104 -64l-20 -60h-4q-52 12 -124 72zM302 728v4q42 41 128 64l20 -64l-116 -52zM326 1404q88 56 132 56l16 -64q-59 -17 -112 -52q-36 43 -36 60zM410 832v4q25 48 36 52q59 -35 108 -76v-4l-36 -52zM538 64l124 28l24 -60q-68 -32 -124 -32h-12 q-9 0 -12 64zM566 808l116 40l32 -48v-12q-89 -44 -136 -44zM590 1396v4q7 60 24 60q87 -20 124 -56v-4l-36 -52q-22 16 -108 44zM622 676v4l44 48l100 -92l-48 -48zM754 164v8q64 82 64 96h4q19 0 60 -32v-4q-31 -62 -80 -112zM774 924v12q48 76 48 100l68 -12v-8 q-7 -58 -64 -124h-4zM790 1268l52 36q40 -38 60 -136l-72 -12q0 30 -40 112zM814 496l48 48l56 -52q5 20 12 20l60 -20v-4l-44 -124q-68 15 -68 28l12 28zM978 644q41 105 52 116q60 -16 60 -28q-44 -116 -52 -120h-4q-56 19 -56 32zM1006 308l48 48l96 -92l-44 -48h-4z M1078 888q32 104 48 104q48 -17 56 -28l-44 -104q-58 19 -60 28zM1206 124v4l40 44h8l96 -84l-40 -48h-4q-80 60 -100 84z" />
<glyph unicode="'" horiz-adv-x="295" d="M98 881v553h101v-553h-101z" />
<glyph unicode="(" horiz-adv-x="541" d="M98 57v132l8 8h52l8 -8v-56l4 -68l-68 -12zM98 333v124l8 8h52l8 -8v-124l-8 -8h-52zM98 601v124l8 8h52l8 -8v-124l-8 -8h-52zM98 869v132h8q47 0 64 -8l-4 -60v-64l-8 -8h-52zM134 -83l68 24v-4q15 -46 52 -100v-8l-48 -36h-4q-29 25 -68 124zM134 1141q29 84 68 124 l52 -32l-52 -112v-4q-68 14 -68 24zM298 -311l44 48l104 -68v-4q-23 -52 -32 -56q-54 27 -116 72v8zM298 1369v4q85 72 120 76l28 -60q-40 -20 -104 -68h-4z" />
<glyph unicode=")" horiz-adv-x="541" d="M83 -331l104 68l44 -48v-8q-103 -72 -120 -72zM83 1389q22 60 36 60q71 -35 112 -76v-4l-40 -48h-4q-64 48 -104 68zM275 -163q32 48 56 104q64 -19 64 -28q-42 -98 -68 -120h-4l-48 36v8zM275 1229v4l52 32q44 -46 68 -128h-4q-44 -20 -64 -20q-5 28 -52 112zM359 65 l4 68v56l8 8h52l8 -8v-128l-4 -4v-4zM359 993q17 8 64 8h8v-132l-8 -8h-52l-8 8v64zM363 333v124l8 8h52l8 -8v-124l-8 -8h-52zM363 601v124l8 8h52l8 -8v-124l-8 -8h-52z" />
<glyph unicode="*" horiz-adv-x="1024" d="M125 1128l37 119l291 -96v305h114v-305l289 96l41 -119l-301 -86l205 -251l-105 -74l-186 264l-182 -264l-107 74l201 251z" />
<glyph unicode="+" horiz-adv-x="1706" d="M262 568v52l8 8h120l8 -8v-52l-8 -8h-120zM526 568v52l8 8h124l8 -8v-52l-8 -8h-124zM794 568v52q0 8 24 8v36l8 8h56l8 -8v-36h36l8 -8v-52l-8 -8h-36v-20l-8 -8h-56l-8 8v20q-24 0 -24 8zM818 8v120l8 8h56l8 -8v-120l-8 -8h-56zM818 272v124l8 8h56l8 -8v-124l-8 -8 h-56zM818 808v124l8 8h56l8 -8v-124l-8 -8h-56zM818 1076v120l8 8h56l8 -8v-120l-8 -8h-56zM1062 568v52l8 8h124l8 -8v-52l-8 -8h-124zM1330 568v52l8 8h120l8 -8v-52l-8 -8h-120z" />
<glyph unicode="," horiz-adv-x="578" d="M148 -151l45 144l77 -23q-41 -149 -54 -149q-68 17 -68 28zM232 104l40 149h5l72 -18v-5q-36 -143 -45 -148z" />
<glyph unicode="-" horiz-adv-x="1527" d="M161 524v52l8 8h120l8 -8v-52l-8 -8h-120zM425 524v52l8 8h124l8 -8v-52l-8 -8h-124zM693 524v52l8 8h124l8 -8v-52l-8 -8h-124zM961 524v52l8 8h124l8 -8v-52l-8 -8h-124zM1229 524v52l8 8h120l8 -8v-52l-8 -8h-120z" />
<glyph unicode="." horiz-adv-x="327" d="M106 9v87h114v-87h-114z" />
<glyph unicode="/" horiz-adv-x="709" d="M65 -215l40 128l68 -20q-36 -132 -48 -132q-60 15 -60 24zM145 45l36 132h4l64 -16v-4q-32 -127 -40 -132zM221 313l44 132q64 -17 64 -28l-40 -128q-68 16 -68 24zM301 581q37 128 44 128q64 -17 64 -28q-37 -128 -44 -128q-64 18 -64 28zM381 845l40 128q68 -16 68 -24 q-37 -128 -44 -128q-64 11 -64 24zM461 1101v4q31 132 44 132l60 -20l-36 -132h-4zM537 1369q36 132 48 132q60 -15 60 -24l-40 -128z" />
<glyph unicode="0" d="M156 384v128l8 8h52l8 -8v-104l4 -20l-68 -8zM156 660v120l8 8h52l8 -8v-120l-8 -8h-52zM156 924v124l8 8h52l8 -8v-124l-8 -8h-52zM188 1196q20 58 80 120q11 0 48 -44q-54 -71 -60 -100h-8zM196 240q44 28 60 28l68 -96v-4l-44 -44q-58 58 -84 116zM384 1408v4 q87 39 136 40l12 -64l-120 -40q-28 47 -28 60zM396 40q26 60 36 60q104 -28 112 -36q0 -64 -12 -64q-59 0 -136 40zM580 1392v56l8 8q125 -8 136 -28q-19 -59 -28 -60q-53 16 -116 24zM664 76q49 12 108 48h4q7 0 36 -48v-8q-32 -31 -128 -60q-9 13 -20 68zM808 1308v4 q30 41 44 48q66 -67 92 -108q0 -8 -60 -36q-27 48 -76 92zM868 212q25 34 52 104h4q60 -9 60 -24q-23 -78 -68 -124q-48 37 -48 44zM928 1100l68 16q8 -17 8 -64v-72l-8 -8h-52l-8 8v24q0 60 -8 96zM936 444v124l8 8h52l8 -8v-124l-8 -8h-52zM936 712v124l8 8h52l8 -8v-124 l-8 -8h-52z" />
<glyph unicode="1" d="M300 1388v52l8 8h120l8 -8v-52l-8 -8h-120zM564 1388v52l8 8h80l8 -8v-92l-8 -8h-52l-8 8v32h-20zM592 8v120l8 8h52l8 -8v-120l-8 -8h-52zM592 276v120l8 8h52l8 -8v-120l-8 -8h-52zM592 544v120l8 8h52l8 -8v-120l-8 -8h-52zM592 812v120l8 8h52l8 -8v-120l-8 -8h-52z M592 1080v120l8 8h52l8 -8v-120l-8 -8h-52z" />
<glyph unicode="2" d="M156 969v72q0 47 8 65q57 -8 68 -16l-8 -93v-28l-8 -8h-52zM184 8v121l8 8h52l8 -8v-121l-8 -8h-52zM220 1235v12q15 33 92 105l44 -52q-76 -70 -76 -93zM272 262v4l92 89h4l44 -44v-4l-96 -89h-4zM384 8v53l8 8h120l8 -8v-53l-8 -8h-120zM436 1425q67 24 136 24h4l8 -8 v-53q0 -6 -100 -20q0 -8 -24 -8zM468 448v4l92 89h4q44 -36 44 -53l-92 -84h-8q-31 24 -40 44zM652 8v53l8 8h120l8 -8v-53l-8 -8h-120zM664 630v8l92 89q41 -30 48 -45v-4l-96 -93zM696 1356l24 57h4q42 -5 116 -81v-4l-44 -44zM836 823l52 121q64 -16 64 -24 q-44 -125 -64 -125zM868 1187h4l56 24h4q36 -94 36 -137q-17 -8 -64 -8h-8v4q0 32 -28 117zM920 8v53l8 8h76l8 -8v-53l-8 -8h-76z" />
<glyph unicode="3" d="M147 424v36l8 8h52l8 -8v-36l-8 -8h-52zM171 272q46 24 68 24q0 -17 56 -108l-52 -40q-45 54 -72 124zM171 1072q0 51 20 136q25 0 68 -24q-16 -57 -16 -88v-24l-8 -8h-56zM271 1336q65 70 120 84l28 -60l-100 -68q-10 0 -48 44zM355 48v4q0 16 32 60q52 -28 116 -44 l-12 -64h-4zM531 1428v28h64q56 0 80 -12l-12 -64l-116 8h-12zM559 800l4 40v8l-4 28l92 24q0 5 28 12l32 -60l-16 -8v-4l12 -4l-20 -64zM623 64l124 36v-4q24 -46 24 -60q-100 -36 -136 -36q-8 12 -12 64zM759 1320v4q25 31 48 44q54 -59 64 -128v-8l-68 -12v4q0 30 -44 96 zM767 988q24 39 40 112l68 -12q0 -49 -52 -140q-53 30 -56 40zM799 724l32 52h12q58 -39 96 -100v-8l-56 -32q-24 39 -84 88zM839 172l64 104l60 -20v-4q-6 -47 -76 -124zM919 524l68 12q8 -18 8 -52v-84l-8 -8h-12q-34 0 -52 8l4 4v12q0 69 -8 108z" />
<glyph unicode="4" d="M148 328v76l8 8h52q8 0 8 -24h36l8 -8v-52l-8 -8h-96zM200 544v4q0 20 72 116l52 -36v-8l-64 -104h-12zM344 776v8l64 104h12q38 -28 48 -28v-4q0 -20 -72 -116zM392 328v52l8 8h120l8 -8v-52l-8 -8h-120zM484 1004q66 106 76 112q52 -28 52 -40q-45 -80 -72 -108h-4z M632 1228q0 17 68 112h8l48 -28v-12l-72 -108zM660 328v52l8 8h108q0 16 8 16h56l8 -8v-124l-8 -8h-56l-8 8v48h-108zM772 1456q6 16 12 16q64 -12 64 -24v-104l-8 -8h-56l-8 8v96zM776 8v120l8 8h56l8 -8v-120l-8 -8h-56zM776 540v124l8 8h56l8 -8v-124l-8 -8h-56zM776 808 v124l8 8h56l8 -8v-124l-8 -8h-56zM776 1076v124l8 8h56l8 -8v-124l-8 -8h-56zM928 328v52l8 8h112l8 -8v-52l-8 -8h-112z" />
<glyph unicode="5" d="M157 396v24l8 8h52q6 0 20 -100l8 -20l-64 -24q-24 31 -24 112zM205 828q21 128 32 128q60 -8 60 -20q-20 -120 -28 -128q-64 11 -64 20zM249 156l52 44q32 -36 92 -84l-36 -56q-17 0 -108 96zM257 1088q20 132 28 132q64 -11 64 -20q-21 -128 -32 -128q-60 11 -60 16z M305 892v12q111 60 124 60l24 -64l-112 -56h-4zM305 1352q20 104 28 104h68l8 -8v-52q0 -8 -24 -8q-7 -52 -16 -52q-52 5 -64 16zM489 8l16 68l80 -8l40 4q8 -12 12 -68l-4 -4h-80q-47 0 -64 8zM541 1396v52l8 8h120l8 -8v-52l-8 -8h-120zM569 924v56l8 8q77 0 140 -32 l-28 -60q-65 20 -100 20h-12zM745 100q60 29 100 64h8l40 -44v-4q-76 -70 -120 -76zM797 832v4q28 39 40 44h4q53 -41 92 -100q-7 -13 -52 -40h-4zM809 1396v52l8 8h120l8 -8v-52l-8 -8h-120zM921 264q36 70 36 116h4q64 -3 64 -12q-27 -132 -48 -132zM933 628l64 24 q32 -80 32 -136l-64 -12z" />
<glyph unicode="6" d="M129 420v40q4 94 24 104q60 -17 60 -24q-16 -54 -16 -108v-4l-8 -8h-28l-28 -4zM165 276q46 28 64 28q23 -51 64 -100q-34 -44 -56 -44q-53 65 -72 116zM197 688q7 31 56 124h4q17 0 60 -32q-55 -116 -64 -116zM325 936l76 108q53 -30 56 -40l-76 -108q-49 27 -56 40z M329 792v4q68 61 124 68q7 0 24 -60q-65 -27 -104 -60q-30 25 -44 48zM353 68q26 49 40 56q49 -35 108 -52v-4q-11 -60 -20 -60q-102 34 -128 60zM477 1156v8l76 104l52 -40v-4l-76 -104h-4zM593 816l4 28v32l8 8q128 -15 136 -40l-28 -56q-45 16 -120 28zM621 64l120 36 l28 -60q-75 -40 -136 -40q-8 6 -12 64zM629 1380l80 104q45 -27 52 -40v-4l-76 -104q-46 26 -56 44zM817 724l48 48q71 -75 88 -112l-52 -32h-12q-3 17 -72 96zM841 168v4l72 100q56 -25 56 -32q-33 -68 -84 -116zM937 512q40 12 68 12v-4q8 -17 8 -64v-68l-8 -8l-64 8l4 36 z" />
<glyph unicode="7" d="M198 1394v52l8 8h92l8 -8v-52l-8 -8h-92zM334 14l48 120q68 -15 68 -28q-47 -120 -60 -120zM434 1394v52l8 8h124l8 -8v-52l-8 -8h-124zM438 266l48 116h4l60 -20q0 -18 -48 -128h-4q-60 17 -60 32zM542 502q0 18 48 128h4q60 -15 60 -32l-48 -116h-4zM642 758 q47 120 60 120l56 -28l-48 -120q-68 15 -68 28zM702 1394v52l8 8h124l8 -8v-52l-8 -8h-124zM746 1006q43 114 56 120q54 -20 56 -28q-41 -115 -52 -120q-60 16 -60 28zM846 1250q36 75 40 116h56l8 -8v-36q0 -14 -40 -100z" />
<glyph unicode="8" d="M180 388v16l8 8h52q7 0 20 -100q5 0 8 -24l-64 -24q-24 62 -24 124zM208 548q11 54 76 128l48 -44v-4q-44 -53 -60 -100h-4zM228 1160q0 36 48 136l60 -28v-4l-40 -116zM236 1012l68 20q11 -39 52 -112l-48 -36h-4q-40 38 -68 128zM276 140l52 44q74 -72 92 -72v-4 q0 -19 -32 -60q-50 23 -112 92zM384 1408q101 52 132 52l16 -64q-68 -21 -112 -48q-36 42 -36 60zM396 764q15 12 28 12l-8 16l32 56q42 -24 116 -36v-4q0 -72 -28 -72q-35 0 -108 -32zM528 8q0 47 12 64l32 -4l88 8l16 -64q-24 -12 -76 -12h-64zM580 744v64l8 8h12 q46 0 96 24l28 -64q-17 -48 -28 -56q-52 16 -116 24zM648 1392v4q12 60 20 60q72 -18 128 -60v-8q-31 -48 -44 -48q-56 36 -100 48zM768 124l88 88q45 -27 52 -40q-77 -100 -104 -100zM792 908q31 43 60 104l64 -24q-18 -66 -76 -124zM804 648v12q36 44 44 44 q69 -58 88 -112l-56 -32zM832 1248q52 28 64 28q36 -87 36 -136l-8 -8h-36l-20 -4zM900 324q12 32 12 100l-4 20l68 8l4 -4v-64q0 -51 -12 -80z" />
<glyph unicode="9" d="M147 991v68l8 8l64 -8l-4 -36l8 -88q-40 -12 -68 -12v4q-8 17 -8 64zM191 1207q33 68 84 116l44 -44v-4l-72 -100q-56 25 -56 32zM207 787l52 32h12q6 -20 68 -92v-8l-44 -44q-71 75 -88 112zM391 1407q75 40 136 40q8 -5 12 -64l-120 -36zM399 3v4l76 104q46 -26 56 -44 l-80 -104q-44 27 -52 40zM419 603l28 56q45 -16 120 -28l-4 -28v-32l-8 -8q-128 15 -136 40zM555 219v4l76 104h4l48 -36v-8l-68 -100h-12zM659 1375v4q11 60 20 60q103 -34 128 -60q-26 -49 -40 -56q-49 35 -108 52zM683 643q65 27 104 60q31 -25 44 -48v-4 q-68 -61 -124 -68q-7 0 -24 60zM703 443l76 108q49 -27 56 -40l-76 -108q-53 30 -56 40zM843 667q55 116 64 116l56 -28l-56 -120h-4q-17 0 -60 32zM867 1243q34 44 56 44q53 -65 72 -116q-45 -28 -64 -28q-23 51 -64 100zM947 907q16 54 16 108v4l8 8h28l28 4l4 -4v-40 q-4 -94 -24 -104q-60 17 -60 24z" />
<glyph unicode=":" horiz-adv-x="588" d="M223 0v266h142v-266h-142zM223 834v266h142v-266h-142z" />
<glyph unicode=";" horiz-adv-x="588" d="M104 -162l156 428h143l-155 -428h-144zM223 834v266h142v-266h-142z" />
<glyph unicode="&#x3c;" horiz-adv-x="1706" d="M198 540l8 24l-8 32l76 32q15 -21 28 -68l-28 -60q-76 27 -76 40zM398 452l28 64q124 -47 124 -56l-20 -56q-18 0 -132 48zM398 676l124 48h8l20 -60l-124 -48h-4zM650 360q17 48 28 56l120 -48v-4l-20 -60h-4q-124 40 -124 56zM650 776v4l124 48q13 -21 24 -64v-4 l-128 -44zM898 256q21 60 28 60l124 -52q-20 -60 -32 -60zM898 876l124 48q7 0 28 -60l-124 -48h-8zM1146 156q23 60 32 60l120 -52q-19 -58 -28 -60zM1146 976l128 48l24 -60l-124 -52zM1398 52v4q16 60 28 60q116 -44 120 -52q-18 -60 -28 -60zM1398 1072q0 9 124 52 l24 -60q-16 -12 -124 -52q-11 12 -24 60z" />
<glyph unicode="=" horiz-adv-x="1706" d="M253 317v52l8 8h120l8 -8v-52l-8 -8h-120zM253 841v52l8 8h120l8 -8v-52l-8 -8h-120zM517 317v52l8 8h124l8 -8v-52l-8 -8h-124zM517 841v52l8 8h124l8 -8v-52l-8 -8h-124zM785 317v52l8 8h124l8 -8v-52l-8 -8h-124zM785 841v52l8 8h124l8 -8v-52l-8 -8h-124zM1053 317 v52l8 8h124l8 -8v-52l-8 -8h-124zM1053 841v52l8 8h124l8 -8v-52l-8 -8h-124zM1321 317v52l8 8h120l8 -8v-52l-8 -8h-120zM1321 841v52l8 8h120l8 -8v-52l-8 -8h-120z" />
<glyph unicode="&#x3e;" horiz-adv-x="1706" d="M152 69q16 12 124 52q11 -12 24 -60q0 -9 -124 -52zM152 1069q18 60 28 60l120 -48v-4q-16 -60 -28 -60q-116 44 -120 52zM400 169l124 52l28 -64l-128 -48zM400 969q19 58 28 60l124 -52q-23 -60 -32 -60zM648 269l124 48h8l20 -60l-124 -48q-7 0 -28 60zM648 869 q21 60 28 60q124 -44 124 -52q-21 -60 -28 -60zM900 369v4l128 44l20 -60v-4l-124 -48q-13 21 -24 64zM900 765v4l20 60h4q124 -40 124 -56q-17 -48 -28 -56zM1148 469l124 48h4l24 -60l-124 -48h-8zM1148 673l20 56q18 0 132 -48l-28 -64q-124 47 -124 56zM1396 573l28 60 q76 -27 76 -40l-8 -24l8 -32l-76 -32q-15 21 -28 68z" />
<glyph unicode="?" horiz-adv-x="1026" d="M101 1014v56q0 84 20 84l60 -16q-12 -47 -12 -108v-8l-8 -8h-36l-20 -4zM177 1282v12q31 48 96 96h4l40 -52l-88 -88zM405 1454q58 20 124 20h12l8 -8v-52q0 -9 -92 -16q0 -8 -32 -8zM421 74v16q0 75 84 104h28q82 0 100 -108v-4q-22 -100 -96 -100h-24q-92 24 -92 92z M481 398q8 109 24 136q68 -15 68 -24l-20 -120h-20q-34 0 -52 8zM557 666q17 40 88 112q44 -40 44 -48l-76 -100zM665 1386l28 64q62 -20 120 -76v-4l-44 -48q-47 43 -104 64zM725 882l64 108q60 -27 60 -36q-31 -66 -76 -116q-48 37 -48 44zM825 1222q12 11 64 20 q12 -15 12 -56v-68q0 -21 -12 -24q-49 8 -60 16l4 56z" />
<glyph unicode="@" horiz-adv-x="2098" d="M115 438l68 12q20 -83 20 -132l-64 -12zM115 590q8 128 24 128l64 -16l-24 -128l-20 4h-36q-8 0 -8 12zM179 846v8q37 97 64 120l56 -36q-35 -53 -56 -112h-4zM187 170v8l60 20l56 -120l-56 -32q-60 99 -60 124zM323 1086q44 55 96 96h4q40 -38 40 -56q-11 0 -88 -84 q-9 1 -52 44zM331 -66q34 44 56 44l88 -84l-40 -52q-40 23 -104 92zM531 1266q89 62 124 68q24 -46 24 -60v-4q-13 0 -108 -60q-10 3 -40 56zM555 -234q8 35 32 64l116 -52v-4l-16 -56h-8zM611 382v68l12 12q60 0 60 -20l-4 -40l8 -68q-9 -8 -68 -16q-8 17 -8 64zM647 602 q36 105 60 124q53 -27 56 -36q-48 -90 -48 -112q-68 13 -68 24zM679 186l52 36q47 -47 92 -76q-25 -60 -32 -60q-96 56 -112 100zM779 1386q44 20 132 40q8 -9 16 -68l-124 -36zM783 842q85 91 116 92l28 -52v-4l-92 -80zM815 -314q11 60 20 60q124 -21 124 -28v-4 q0 -44 -12 -60q-132 19 -132 32zM931 130q84 25 116 44l32 -52v-12q-102 -48 -136 -48zM1035 970l4 4h4q125 -7 140 -36l-24 -56l-120 24v24zM1047 1442q16 8 44 8h88l8 -8v-52q0 -8 -12 -8l-120 -4l-4 4v20zM1087 -286l128 16l12 -68q-50 -16 -136 -16l-4 4v64zM1147 250v4 q37 37 76 96l36 -20l20 96q57 -8 68 -16q-21 -128 -28 -128l-56 4q-22 -35 -68 -80h-4zM1255 810v4l48 44q65 -74 72 -132l-64 -16q-25 62 -56 100zM1271 142q52 28 64 28q0 -31 68 -36q12 0 12 -8v-56l-8 -8h-4q-97 0 -132 80zM1303 558l32 132l68 -20l-32 -128zM1311 1370 l16 68q132 -26 132 -44q-13 -56 -28 -56zM1343 -246l124 40q24 -43 24 -68q-107 -36 -132 -36zM1371 826l44 124l64 -28q-16 -27 -40 -120h-4q-64 11 -64 24zM1527 162l112 68l36 -52q-68 -59 -120 -76zM1555 1286v4l28 52q25 0 120 -76q-14 -27 -44 -52zM1587 -158l108 68 q19 -13 40 -48v-8q-41 -35 -116 -72zM1731 314v4l76 96h8q48 -29 48 -36v-4q-43 -63 -84 -104zM1751 1122q41 44 56 44q72 -95 72 -116q0 -7 -56 -32zM1867 526l28 124l68 -8q-20 -136 -36 -136zM1871 902l64 20q28 -71 28 -136l-32 -8h-24l-4 -4h-4z" />
<glyph unicode="A" horiz-adv-x="1564" d="M135 32l48 116q30 0 68 -28l-56 -120h-4q-56 20 -56 32zM243 268v8q39 111 56 120l56 -28l-48 -120h-8zM347 516l48 124h8l56 -20v-8l-12 -36h124l8 -8v-52l-8 -8h-120l-8 8v48h-4q-23 -71 -36 -72zM451 768q44 106 60 120q56 -20 56 -32l-48 -116q-30 0 -68 28z M559 1012l48 120h8l56 -20v-8q-39 -111 -56 -120zM663 1260l88 196h56q16 -20 88 -200q-49 -24 -68 -24q-38 108 -48 108q-9 0 -48 -108q-30 0 -68 28zM711 516v52l8 8h120l8 -8v-52l-8 -8h-120zM887 1104v8l56 20h8l48 -124h-4l-56 -24q-17 23 -52 120zM979 516v52l8 8h124 v4l-12 32v8l56 20h8l48 -124l-60 -24q-19 29 -32 72h-4v-48l-8 -8h-120zM991 864l60 24q16 -23 56 -124q-49 -24 -68 -24zM1203 372h4l56 24q17 -23 52 -120v-8l-56 -20h-8zM1307 124q49 24 68 24l48 -124l-64 -24z" />
<glyph unicode="B" horiz-adv-x="1042" d="M171 8v100l8 8h52l8 -8v-40h104l8 -8v-52l-8 -8h-164zM171 252v124l8 8h52l8 -8v-124l-8 -8h-52zM171 520v124l8 8h52l8 -8v-124l-8 -8h-52zM171 784v128l8 8h52l8 -8v-60h164l8 -8v-52l-8 -8h-68l-160 -4zM171 1056v124l8 8h52l8 -8v-124l-8 -8h-52zM171 1324v120l8 8 h164l8 -8v-52l-8 -8h-104v-60l-8 -8h-52zM479 1388l4 4v52q0 8 12 8q124 -13 132 -40q-21 -52 -32 -56q-30 15 -116 32zM483 8v56l8 8h20l4 -4l4 4h16q29 0 72 12l20 -64q-34 -20 -108 -20h-28zM495 852q69 13 116 36q32 -64 48 -64q28 -9 28 -16q-25 -56 -32 -56 q-33 20 -116 32l-4 4h-4l-28 -4zM699 1280v8q24 31 44 40h4q44 -42 72 -124q-13 -9 -68 -20q0 22 -52 96zM707 964q33 51 48 104h4q64 -11 64 -20q-23 -82 -68 -128q-48 33 -48 44zM715 136q76 72 76 88h12l48 -28v-12q-33 -53 -96 -100zM755 680q25 31 48 44h8 q72 -92 72 -120l-60 -24h-4q-9 32 -64 100zM843 340q12 33 12 112l-4 4v4l68 8l4 -4v-60l-8 -80q-31 0 -72 16z" />
<glyph unicode="C" horiz-adv-x="1540" d="M110 664v104l4 4v4l20 -4h40l4 -4h4l-4 -20l4 -108l-64 -8zM134 912q16 70 52 132l60 -32l-48 -120zM146 496l64 20q28 -72 52 -112q-4 -11 -52 -36h-12q-52 111 -52 128zM262 1160v8q22 31 92 96q31 -25 44 -48v-4l-84 -88h-8zM282 252l52 44l92 -88v-4l-40 -48h-4 q-31 22 -100 96zM470 1352q106 52 128 52q20 -45 20 -64q-64 -23 -112 -52q-33 35 -36 64zM502 80l32 60l120 -48l-16 -64h-4q-32 0 -132 52zM730 1436q17 8 64 8h112l4 -4h4l-12 -68l-56 4l-104 -4zM770 4l4 40v20l4 4v4l40 -4l88 4l8 -64l-12 -8h-124l-4 4h-4zM1026 1348 q18 64 28 64q67 -21 124 -56l-28 -56h-4zM1030 96l120 52l28 -60v-4l-128 -52zM1254 216v4l92 92l48 -44q0 -10 -96 -100q-14 8 -44 48zM1254 1224v8q28 39 40 44h4l92 -92v-8l-48 -40z" />
<glyph unicode="D" horiz-adv-x="1422" d="M156 8v104l8 8h52l8 -8v-44h120l8 -8v-52l-8 -8h-180zM156 256v124l8 8h52l8 -8v-124l-8 -8h-52zM156 524v124l8 8h52l8 -8v-124l-8 -8h-52zM156 792v124l8 8h52l8 -8v-124l-8 -8h-52zM156 1060v124l8 8h52l8 -8v-124l-8 -8h-52zM156 1328v120l8 8h52l8 -8v-120l-8 -8 h-52zM296 1388v56l8 8h120l8 -8v-56l-8 -8h-120zM480 8v52l8 8h124l8 -8v-52l-8 -8h-124zM564 1388v56l8 8h80q34 0 52 -8l-4 -48v-16h-128zM744 76l120 40q28 -52 28 -64q-31 -17 -132 -44q-8 7 -16 68zM816 1356q19 60 32 60q99 -43 116 -64v-8q-29 -48 -36 -48zM972 188 q9 1 88 84q48 -32 48 -44q-79 -96 -100 -96q-36 41 -36 56zM1028 1212v4q25 31 48 44q53 -57 84 -108v-8l-56 -32zM1128 380l52 116l64 -20l-52 -128q-20 0 -64 32zM1160 1000l68 24l36 -132q-11 -8 -64 -16zM1204 624l8 124l4 4h56l8 -8v-60q0 -72 -12 -72q-54 4 -64 12z " />
<glyph unicode="E" horiz-adv-x="1028" d="M155 8v100l8 8h52l8 -8v-40h100l8 -8v-52l-8 -8h-160zM155 256v120l8 8h52l8 -8v-120l-8 -8h-52zM155 524v120l8 8h52l8 -8v-120l-8 -8h-52zM155 792v120l8 8h52l8 -8v-120l-8 -8h-52zM155 1060v120l8 8h52l8 -8v-120l-8 -8h-52zM155 1328v120l8 8h160l8 -8v-52l-8 -8 h-100v-60l-8 -8h-52zM195 704v52l8 8h120l8 -8v-52l-8 -8h-120zM463 8v52l8 8h120l8 -8v-52l-8 -8h-120zM463 704v52l8 8h120l8 -8v-52l-8 -8h-120zM463 1396v52l8 8h120l8 -8v-52l-8 -8h-120zM731 8v52l8 8h120l8 -8v-52l-8 -8h-120zM731 704v52l8 8h120l8 -8v-52l-8 -8 h-120zM731 1396v52l8 8h120l8 -8v-52l-8 -8h-120z" />
<glyph unicode="F" horiz-adv-x="991" d="M155 8v104l8 8h52l8 -8v-104l-8 -8h-52zM155 256v124l8 8h52l8 -8v-124l-8 -8h-52zM155 524v124l8 8h52l8 -8v-124l-8 -8h-52zM155 792v124l8 8h52l8 -8v-124l-8 -8h-52zM155 1060v124l8 8h52l8 -8v-124l-8 -8h-52zM155 1328v124l8 8h52l8 -8v-124l-8 -8h-52zM235 704v52 l8 8h56l8 -8v-52l-8 -8h-56zM235 1400v52l8 8h56l8 -8v-52l-8 -8h-56zM439 704v52l8 8h120l8 -8v-52l-8 -8h-120zM439 1400v52l8 8h120l8 -8v-52l-8 -8h-120zM707 704v52l8 8h120l8 -8v-52l-8 -8h-120zM707 1400v52l8 8h120l8 -8v-52l-8 -8h-120z" />
<glyph unicode="G" horiz-adv-x="1698" d="M122 664v108h64l4 -4h4l-4 -20l4 -108l-64 -8zM146 912q36 128 56 128l56 -28l-48 -120zM158 492q13 11 68 24v-4q24 -72 48 -108q-4 -11 -52 -36h-12zM274 1160v8q22 31 92 96l44 -48v-4l-88 -92zM298 248v4l48 44l92 -88v-4l-40 -48h-4q-21 12 -96 92zM482 1348 q91 52 124 56q9 0 24 -64l-116 -52q-32 45 -32 60zM514 80l32 60l120 -48l-16 -64h-4q-36 0 -132 52zM658 692v56l8 8h120l8 -8v-56l-8 -8h-120zM742 1436q17 8 64 8h72l8 -8v-32l-4 -28h-12q-77 0 -116 -8zM782 4l4 40v20l4 4v4l40 -4h4l80 4q8 -5 12 -64l-12 -8h-124l-4 4 h-4zM926 692v56l8 8h120l8 -8v-56l-8 -8h-120zM1006 1360l20 64q65 -20 132 -52q-27 -60 -36 -60zM1042 100q48 13 116 48l32 -52v-12l-128 -52q-20 51 -20 68zM1194 696v52l8 8h124l8 -8v-52l-8 -8h-124zM1238 1248v4l32 48h8q69 -55 100 -92v-4l-48 -44q-38 44 -92 88z M1266 216v4l88 92l52 -44q-69 -84 -100 -100zM1426 412v4l48 120q64 -16 64 -24q-31 -96 -60 -128q0 8 -52 28zM1462 696v52l8 8h88l8 -8v-88l-8 -8q-64 3 -64 12v16l4 4v4q-36 0 -36 8z" />
<glyph unicode="H" horiz-adv-x="1251" d="M175 8v100l8 8h52l8 -8v-100l-8 -8h-52zM175 256v120l8 8h52l8 -8v-120l-8 -8h-52zM175 524v120l8 8h52l8 -8v-120l-8 -8h-52zM175 792v120l8 8h52l8 -8v-120l-8 -8h-52zM175 1060v120l8 8h52l8 -8v-120l-8 -8h-52zM175 1328v120l8 8h52l8 -8v-120l-8 -8h-52zM283 756v52 l8 8h120l8 -8v-52l-8 -8h-120zM551 756v52l8 8h120l8 -8v-52l-8 -8h-120zM819 756v52l8 8h120l8 -8v-52l-8 -8h-120zM999 8v100l8 8h52l8 -8v-100l-8 -8h-52zM999 256v120l8 8h52l8 -8v-120l-8 -8h-52zM999 524v120l8 8h52l8 -8v-120l-8 -8h-52zM999 792v120l8 8h52l8 -8 v-120l-8 -8h-52zM999 1060v120l8 8h52l8 -8v-120l-8 -8h-52zM999 1328v120l8 8h52l8 -8v-120l-8 -8h-52z" />
<glyph unicode="I" horiz-adv-x="598" d="M267 8v100l8 8h52l8 -8v-100l-8 -8h-52zM267 256v120l8 8h52l8 -8v-120l-8 -8h-52zM267 524v120l8 8h52l8 -8v-120l-8 -8h-52zM267 792v120l8 8h52l8 -8v-120l-8 -8h-52zM267 1060v120l8 8h52l8 -8v-120l-8 -8h-52zM267 1328v120l8 8h52l8 -8v-120l-8 -8h-52z" />
<glyph unicode="J" horiz-adv-x="994" d="M146 300l64 20q21 -64 48 -108v-8l-48 -32h-12q-39 76 -52 128zM298 60q34 52 44 52q51 -32 100 -44l4 -4v-4q-5 -60 -16 -60q-49 0 -132 60zM558 80q57 32 100 72l44 -44v-8q-96 -80 -120 -80zM718 256l40 120q64 -7 64 -16q0 -51 -44 -132zM762 508v124l8 8h52l8 -8 v-124l-8 -8h-52zM762 776v124l8 8h52l8 -8v-124l-8 -8h-52zM762 1044v124l8 8h52l8 -8v-124l-8 -8h-52zM762 1312v120l8 8h52l8 -8v-120l-8 -8h-52z" />
<glyph unicode="K" horiz-adv-x="1192" d="M166 24v100l8 8h52l8 -8v-100l-8 -8h-52zM166 272v120l8 8h52l8 -8v-120l-8 -8h-52zM166 540v120l8 8h52l8 -8v-120l-8 -8h-52zM166 808v120l8 8h52l8 -8v-120l-8 -8h-52zM166 1072v124l8 8h52l8 -8v-124l-8 -8h-52zM166 1340v124l8 8h52l8 -8v-124l-8 -8h-52zM354 820v8 l88 96l48 -44q-61 -77 -88 -100h-4zM378 672v8q14 21 44 40h4l84 -96v-4q-5 -12 -44 -40h-4zM530 1024v4q64 77 88 96q41 -29 48 -44l-88 -100q-40 30 -48 44zM550 476l48 44h4l88 -100l-52 -44zM706 1224v4l80 96q18 0 56 -40v-4l-88 -100zM726 276l52 44l88 -100l-48 -44 h-4zM882 1428q30 41 44 48h84v-4l-76 -88h-4q-23 14 -48 44zM906 80l44 36h4q19 -13 64 -72l-48 -44q-64 58 -64 80z" />
<glyph unicode="L" horiz-adv-x="952" d="M154 8v100l8 8h52l8 -8v-40h24l8 -8v-52l-8 -8h-84zM154 256v120l8 8h52l8 -8v-120l-8 -8h-52zM154 524v120l8 8h52l8 -8v-120l-8 -8h-52zM154 792v120l8 8h52l8 -8v-120l-8 -8h-52zM154 1060v120l8 8h52l8 -8v-120l-8 -8h-52zM154 1328v120l8 8h52l8 -8v-120l-8 -8h-52z M386 8v52l8 8h120l8 -8v-52l-8 -8h-120zM654 8v52l8 8h120l8 -8v-52l-8 -8h-120z" />
<glyph unicode="M" horiz-adv-x="1550" d="M157 12v104l8 8h52l8 -8v-104l-8 -8h-52zM157 264v120l8 8h52l8 -8v-120l-8 -8h-52zM157 532v120l8 8h52l8 -8v-120l-8 -8h-52zM157 800v120l8 8h52l8 -8v-120l-8 -8h-52zM157 1068v120l8 8h52l8 -8v-120l-8 -8h-52zM157 1336v120l8 8h52l8 -8v-120l-8 -8h-52zM229 1460 l24 8h44q7 0 44 -116l-64 -24h-4zM321 1196l64 24l48 -132l-64 -28zM413 928q20 15 60 24h8l40 -132v-4l-60 -20q-16 25 -48 132zM505 668l64 20l44 -136l-64 -20q-44 116 -44 136zM597 400l60 24q8 -7 48 -136l-64 -24q-44 117 -44 136zM685 132q21 13 64 24h4 q23 -80 32 -80l24 80q68 -14 68 -28q-43 -128 -52 -128l-48 16l-44 -16zM857 292l48 132l64 -28l-48 -132q-64 22 -64 28zM949 560q41 128 52 128l56 -20v-4l-40 -132q-68 14 -68 28zM1041 824q40 128 48 128h4q56 -15 56 -28q-40 -128 -48 -128q-58 19 -60 28zM1133 1092 q41 128 48 128q58 -19 60 -28q-28 -95 -48 -132q-60 20 -60 32zM1221 1352q39 116 48 116h52l12 -12q-32 -100 -48 -128zM1345 12v104l8 8h52l8 -8v-104l-8 -8h-52zM1345 264v120l8 8h52l8 -8v-120l-8 -8h-52zM1345 532v120l8 8h52l8 -8v-120l-8 -8h-52zM1345 800v120l8 8 h52l8 -8v-120l-8 -8h-52zM1345 1068v120l8 8h52l8 -8v-120l-8 -8h-52zM1345 1336v120l8 8h52l8 -8v-120l-8 -8h-52z" />
<glyph unicode="N" horiz-adv-x="1366" d="M171 1v104l8 8h52l8 -8v-104l-8 -8h-52zM171 249v124l8 8h52l8 -8v-124l-8 -8h-52zM171 517v124l8 8h52l8 -8v-124l-8 -8h-52zM171 785v124l8 8h52l8 -8v-124l-8 -8h-52zM171 1053v124l8 8h52l8 -8v-124l-8 -8h-52zM171 1321v120l8 8h52l8 -8v-120l-8 -8h-52zM255 1405 q7 14 56 40q72 -104 72 -116l-56 -36zM399 1185l56 32l72 -112q-49 -36 -60 -36q-68 102 -68 116zM539 953q40 36 60 36h4l64 -116l-56 -32zM683 725v8l56 32l72 -112q-40 -36 -60 -36zM823 501q48 36 64 36l68 -112q-48 -36 -64 -36zM967 273q40 36 60 36l68 -108v-8 l-56 -32zM1111 53q36 11 36 36q0 24 8 24h52l8 -8v-104q0 -8 -40 -12l-20 -12q-44 60 -44 76zM1147 249v124l8 8h52l8 -8v-124l-8 -8h-52zM1147 517v124l8 8h52l8 -8v-124l-8 -8h-52zM1147 785v124l8 8h52l8 -8v-124l-8 -8h-52zM1147 1053v124l8 8h52l8 -8v-124l-8 -8h-52z M1147 1321v120l8 8h52l8 -8v-120l-8 -8h-52z" />
<glyph unicode="O" horiz-adv-x="1721" d="M131 700v48q0 84 12 84q42 0 64 -12l-8 -124l-4 -4h-56zM155 556l64 12v-4l36 -112v-8l-60 -24q-40 81 -40 136zM175 964v4q0 27 60 124h4l52 -28v-12q-39 -68 -52 -108h-4zM267 304l48 32h8l80 -92v-4l-44 -44q-90 83 -92 108zM323 1204v4q49 59 100 92q40 -40 40 -60 q-11 0 -92 -76h-4q-39 28 -44 40zM471 104q3 29 40 64q4 -13 108 -56v-4l-20 -60h-4q-28 5 -124 56zM547 1372v4q76 32 128 44q8 -9 20 -64l-124 -44zM731 16l8 60l128 -8l4 -4v-20l4 -40l-4 -4h-44q-96 0 -96 16zM815 1384v48l8 8h60q87 0 112 -16l-16 -64q-69 12 -128 12 h-24zM995 80l120 44q28 -42 28 -68l-132 -40zM1103 1320q15 68 28 68q88 -38 120 -68q-28 -49 -36 -52h-8q-47 33 -104 52zM1227 184l96 80h4q39 -28 44 -40v-4q-52 -57 -104 -92zM1315 1184v4l44 44h4q54 -54 84 -100v-8q-43 -36 -56 -36q-25 40 -76 96zM1403 372 q21 23 56 104l4 4h4l56 -20v-8q-41 -105 -64 -120q-52 27 -56 40zM1455 976l64 28q36 -81 36 -136l-64 -12v4zM1495 604q12 66 12 124l4 4h56l8 -8v-32q0 -70 -12 -104z" />
<glyph unicode="P" horiz-adv-x="1034" d="M120 8v100l8 8h52l8 -8v-100l-8 -8h-52zM120 252v124l8 8h52l8 -8v-124l-8 -8h-52zM120 520v124l8 8h52l8 -8v-124l-8 -8h-52zM120 788v124l8 8h52l8 -8v-124l-8 -8h-52zM120 1056v124l8 8h52l8 -8v-124l-8 -8h-52zM120 1324v120l8 8h184l8 -8v-52l-8 -8h-124v-60l-8 -8 h-52zM184 700v52l8 8h124l8 -8v-52l-8 -8h-124zM452 692v60l8 8h12q61 0 108 12l16 -68q-55 -16 -140 -16zM452 1392v52l8 8h48q63 0 88 -16l-20 -64q-45 12 -116 12zM692 816v4l88 84q46 -28 52 -40v-4q-82 -96 -104 -96zM692 1328q25 48 36 52q58 -30 104 -100l-48 -36h-8 q-84 75 -84 84zM824 1016l8 56l-8 60l68 16q8 -18 8 -52v-48q0 -34 -8 -52z" />
<glyph unicode="Q" horiz-adv-x="1698" d="M136 700v48q0 84 12 84q42 0 64 -12l-8 -124l-4 -4h-56zM160 556l64 12v-4l36 -112v-8l-60 -24q-40 81 -40 136zM180 964v4q0 28 60 124h4l52 -28v-12q-39 -68 -52 -108h-4zM272 304l52 36l84 -96v-4l-44 -44q-90 83 -92 108zM296 492q30 24 128 64l24 -64l-120 -56z M328 1208q42 53 100 92q40 -42 40 -56l-92 -80h-4q-44 31 -44 44zM476 104l28 60h4l116 -56l-20 -60h-4q-28 5 -124 56zM548 1372q64 33 132 48l20 -64l-124 -44zM560 584q16 8 44 8h36q64 0 64 -12q0 -47 -12 -64l-4 4h-120zM736 12l8 64l128 -8l4 -4v-56l-8 -8h-40 q-92 0 -92 12zM820 488q12 68 24 68q84 -29 124 -52q-17 -60 -36 -60q-65 32 -112 44zM820 1380v52l8 8h60q108 0 108 -20l-12 -60q-69 12 -128 12h-28zM1000 80l120 44q28 -49 28 -64q-46 -24 -132 -44q-8 11 -16 64zM1056 380v8l28 48h12q71 -50 104 -84l-44 -48h-4z M1104 1328l28 60q74 -30 124 -68l-32 -52h-4zM1232 188l28 16l-4 4v8l40 44h4l12 -8l16 16l48 -48l-12 -16q19 -9 36 -32l-44 -48l-48 36l-32 -28h-12zM1320 1192l44 40q88 -84 88 -112l-52 -32q-80 88 -80 104zM1408 368v4l60 108h4q48 -17 56 -28q-45 -103 -64 -120h-4z M1460 976v4l60 24q17 -21 44 -132q-9 -8 -68 -16zM1472 52q8 0 28 52q109 -29 120 -40v-8q0 -52 -16 -52q-132 27 -132 48zM1500 608l8 96v20l8 8h56l8 -8v-8q0 -91 -16 -128q-64 9 -64 20z" />
<glyph unicode="R" horiz-adv-x="1139" d="M175 12v100l8 8h52l8 -8v-100l-8 -8h-52zM175 260v120l8 8h52l8 -8v-120l-8 -8h-52zM175 528v120l8 8h52l8 -8v-120l-8 -8h-52zM175 796v120l8 8h52l8 -8v-120l-8 -8h-52zM175 1064v120l8 8h52l8 -8v-120l-8 -8h-52zM175 1332v120l8 8h52l8 -8v-120l-8 -8h-52zM291 1400 v52l8 8h124l8 -8v-52l-8 -8h-124zM307 700v8q5 12 44 40h4l84 -96v-4q-14 -21 -44 -40h-4zM451 704v56l8 8h120q11 0 16 -64l-32 -8h-104zM479 504q42 44 56 44l84 -100l-48 -44h-4zM559 1392v60q0 8 12 8q132 -13 132 -40l-20 -52h-4zM659 300v4l48 44l84 -96v-8 q-14 -21 -44 -40h-4zM703 804q51 27 96 68h4l44 -44v-4q-79 -75 -116 -80h-4zM783 1300v4l44 48q88 -79 88 -116q-52 -28 -64 -28q0 25 -68 92zM835 96v8q39 40 52 40l84 -100l-48 -44zM867 980q16 51 16 76v28q0 12 44 12h20q8 0 8 -12q0 -79 -28 -136q-60 20 -60 32z" />
<glyph unicode="S" horiz-adv-x="1077" d="M119 364v88l8 8h52l8 -8v-40l4 -40l-68 -12zM163 1052q12 8 68 12l44 -112l-48 -36q-60 62 -60 132zM167 228l60 28q20 -40 72 -100l-44 -44h-4q-81 78 -84 116zM175 1204q21 64 76 124q10 0 48 -44v-4q-27 -31 -60 -100zM339 828q26 53 36 56l116 -52v-4 q-18 -60 -32 -60q-86 31 -120 60zM371 1416q74 34 136 36l8 -24v-32l4 -4v-4q-82 -17 -120 -36q-28 48 -28 64zM375 32q19 60 28 60q49 -20 116 -28v-56l-8 -8h-4q-87 0 -132 32zM591 724q17 60 32 60q116 -51 116 -68q-27 -48 -36 -52zM635 92v4q47 15 100 60h4 q15 -7 44 -48q-70 -65 -120 -76q-28 39 -28 60zM635 1376q13 60 24 60q62 -14 124 -76q-37 -44 -48 -44zM803 584v4l48 44q65 -74 72 -124v-8l-64 -16q-11 39 -56 100zM803 1212q21 15 64 28q32 -79 32 -140l-4 -4h-24l-40 -4q-12 78 -28 120zM819 248v4q41 113 48 116 q60 -9 60 -20q-13 -65 -48 -128z" />
<glyph unicode="T" horiz-adv-x="975" d="M142 1396v52l8 8h120l8 -8v-52l-8 -8h-120zM406 1396v52l8 8h124l8 -8v-52q0 -8 -24 -8v-60l-8 -8h-56l-8 8v60h-36zM450 8v100l8 8h56l8 -8v-100l-8 -8h-56zM450 256v120l8 8h56l8 -8v-120l-8 -8h-56zM450 524v120l8 8h56l8 -8v-120l-8 -8h-56zM450 792v120l8 8h56l8 -8 v-120l-8 -8h-56zM450 1060v120l8 8h56l8 -8v-120l-8 -8h-56zM674 1396v52l8 8h120l8 -8v-52l-8 -8h-120z" />
<glyph unicode="U" d="M180 345v59l8 8h52l8 -8v-20q0 -49 12 -94l-64 -20q-16 32 -16 75zM180 549v117l8 8h52l8 -8v-117l-8 -8h-52zM180 811v118l8 8h52l8 -8v-118l-8 -8h-52zM180 1074v117l8 8h52l8 -8v-117l-8 -8h-52zM180 1336v110l8 8h52l8 -8v-110l-8 -7h-52zM268 141v4l48 43 q79 -70 92 -70v-4q-3 -27 -32 -59h-4q-42 14 -104 86zM512 8q8 63 16 63l64 -4l56 4l12 -63l-24 -8h-80q-28 0 -44 8zM764 102v4l96 74q23 -13 48 -43q-83 -86 -116 -86zM920 282l12 102v12l8 8h52l8 -8v-51q-7 -79 -20 -82zM932 541v117l8 8h52l8 -8v-117l-8 -8h-52z M932 803v118l8 8h52l8 -8v-118l-8 -7h-52zM932 1066v118l8 7h52l8 -7v-118l-8 -8h-52zM932 1329v117l8 8h52l8 -8v-117l-8 -8h-52z" />
<glyph unicode="V" horiz-adv-x="1311" d="M105 1444l4 4h64q7 -1 40 -100l-64 -24q-12 13 -44 120zM193 1192v4l60 20q20 -37 48 -132q-46 -24 -68 -24zM281 928l64 24q44 -116 44 -136q-45 -20 -64 -20zM373 664l60 24q8 -8 48 -136l-64 -24q-44 116 -44 136zM461 396q43 24 68 24l40 -136l-64 -20zM549 132 l64 24q13 -17 20 -56h8q12 56 24 56l60 -24q-41 -132 -52 -132h-4l-36 12l-36 -12zM705 284l40 136q68 -14 68 -28q-40 -125 -48 -128zM793 556l48 132q60 -20 60 -32l-44 -128q-64 20 -64 28zM885 824q39 128 48 128q60 -21 60 -28q-41 -128 -48 -128h-4q-56 13 -56 28z M973 1088q41 128 52 128l56 -20v-4l-40 -132q-68 14 -68 28zM1061 1348q33 99 40 100h60l8 -8q-36 -116 -48 -116z" />
<glyph unicode="W" horiz-adv-x="1827" d="M110 1445l4 4h60q10 0 36 -110l-64 -20q-12 15 -36 126zM182 1189l60 16l36 -134l-64 -20q-32 84 -32 138zM246 917l64 20q16 -32 36 -134l-64 -19zM314 650q12 10 68 19q32 -110 32 -137l-64 -16zM386 386l64 16l36 -134l-64 -20q-8 0 -36 138zM454 118l64 20 q60 -16 60 -28q-23 -110 -32 -110l-32 8l-28 -8q-8 0 -32 118zM550 264q24 138 36 138q64 -12 64 -24q-35 -130 -40 -130zM618 539q28 130 40 130q60 -11 60 -23q-29 -124 -40 -130q-60 17 -60 23zM686 807q29 124 40 130q60 -13 60 -20q-28 -133 -40 -133q-58 14 -60 23z M754 1071q33 134 40 134l64 -20q-32 -134 -44 -134zM822 1339q26 102 36 110h112q10 -8 36 -110l-68 -20l-20 79h-8q-13 -79 -24 -79zM970 1185l68 20l36 -134l-64 -20q-12 20 -40 134zM1046 921l60 16l36 -134l-64 -19q-32 82 -32 137zM1110 650q12 10 64 19 q16 -32 36 -133l-64 -20zM1178 382q15 12 68 20q32 -111 32 -138l-64 -16zM1250 118l60 20l64 -24q-23 -114 -36 -114l-28 8l-32 -8q-28 97 -28 118zM1342 268l32 134h4q64 -9 64 -24q-28 -125 -36 -130zM1410 536q33 133 40 133h4l60 -19l-36 -134zM1482 803q27 134 40 134 q60 -14 60 -23l-36 -130zM1550 1075q31 130 40 130l60 -20q-16 -84 -36 -134q-64 14 -64 24zM1618 1339q26 110 36 110h56l8 -8q-24 -105 -36 -122z" />
<glyph unicode="X" horiz-adv-x="1307" d="M100 49l76 104h8l48 -36v-4l-72 -104q-22 0 -60 40zM188 1433l56 32q72 -106 72 -116l-56 -36q-72 105 -72 120zM256 265l72 108h8q46 -28 52 -40q-59 -88 -80 -108zM332 1197v4l52 36h4q72 -102 72 -116l-52 -32h-4zM412 485l76 104h8l48 -36l-72 -108q-21 0 -60 40z M476 977l56 36l72 -112v-8l-56 -32q-72 106 -72 116zM568 701v4l72 104q21 0 60 -40l-4 -16q52 -69 52 -84q-47 -32 -60 -32q-17 34 -40 60q-21 -35 -28 -36zM724 921l76 108l56 -40q-59 -88 -80 -108q-44 26 -52 40zM764 525l56 36l72 -112v-8l-56 -32q-72 106 -72 116z M880 1137v4q69 104 80 104q44 -27 48 -36v-8l-68 -100h-12zM908 293q7 14 56 40q72 -102 72 -116q-46 -32 -60 -32zM1036 1357v4q67 98 80 104l52 -40l-80 -108q-44 27 -52 40zM1052 73q48 32 60 32l56 -88q-13 -20 -60 -40z" />
<glyph unicode="Y" horiz-adv-x="1150" d="M124 1436l60 28l60 -120l-60 -32q-39 68 -60 124zM244 1196l60 28l60 -120q-49 -28 -64 -28q-56 108 -56 120zM360 956q52 28 64 28q56 -108 56 -120v-4l-60 -24h-4zM480 716l60 28l24 -48h4q17 48 28 48q56 -25 56 -32q-52 -100 -52 -112v-112l-8 -8h-56l-8 8v120z M528 8v68l8 8h56l8 -8v-68l-8 -8h-56zM528 220v124l8 8h56l8 -8v-124l-8 -8h-56zM648 864q56 120 68 120q56 -25 56 -32l-56 -116h-4q-12 0 -64 28zM768 1104q56 117 64 120q56 -24 56 -36q-52 -112 -64 -112zM888 1348q55 116 64 116q56 -25 56 -32l-60 -120q-60 27 -60 36 z" />
<glyph unicode="Z" horiz-adv-x="1192" d="M119 8v36l8 8h24q0 16 8 16h104l8 -8v-52l-8 -8h-136zM151 1384v52l8 8h120l8 -8v-52l-8 -8h-120zM167 188v8q67 104 76 108q52 -28 52 -40l-68 -108q-12 0 -60 32zM319 420l68 108h8l52 -32q0 -20 -76 -116h-4q-48 29 -48 40zM403 8v52l8 8h120l8 -8v-52l-8 -8h-120z M419 1384v52l8 8h120l8 -8v-52l-8 -8h-120zM467 640l76 112h4q46 -28 52 -40l-80 -112zM619 860v8q67 104 76 108q49 -28 52 -36v-8l-68 -104q-12 0 -60 32zM671 8v52l8 8h120l8 -8v-52l-8 -8h-120zM687 1384v52l8 8h120l8 -8v-52l-8 -8h-120zM771 1092q57 95 76 108l52 -32 q0 -23 -76 -116h-4q-48 31 -48 40zM919 1312l12 20v56q0 24 24 24v24l8 8h40v-132q-21 -35 -28 -36h-4zM939 8v52l8 8h80l8 -8v-52l-8 -8h-80z" />
<glyph unicode="[" horiz-adv-x="541" d="M133 -410v1866h332v-119h-191v-1630h191v-117h-332z" />
<glyph unicode="\" horiz-adv-x="796" d="M96 1490l64 20q8 -8 44 -132q-52 -20 -72 -20v4zM176 1230h4l60 16q8 -5 40 -132v-4l-64 -16h-4q-36 117 -36 136zM252 962l68 20l40 -132q-38 -20 -64 -20q-8 0 -44 132zM332 694q10 10 68 24l40 -132q-9 -9 -68 -24zM412 430l64 24q12 -20 44 -136l-68 -20zM492 166v4 l64 16h4q36 -116 36 -136h-4l-60 -16q-8 5 -40 132zM568 -98q52 20 72 20v-4l36 -128l-64 -20q-8 8 -44 132z" />
<glyph unicode="]" horiz-adv-x="541" d="M76 -293h190v1630h-190v119h332v-1866h-332v117z" />
<glyph unicode="^" horiz-adv-x="2048" d="M422 901l532 557h140l530 -557h-143l-457 455l-459 -455h-143z" />
<glyph unicode="_" horiz-adv-x="1024" d="M0 -383h1024v-100h-1024v100z" />
<glyph unicode="`" horiz-adv-x="1024" d="M276 1597h152l209 -350h-92z" />
<glyph unicode="a" horiz-adv-x="1353" d="M106 576q0 53 20 132h4q64 -12 64 -20l-24 -124l-4 4h-52zM118 428l64 16l44 -120q-48 -28 -60 -28q-48 102 -48 132zM190 840q30 52 92 108q31 -25 44 -48v-4l-80 -92h-4zM250 180l48 44h4l92 -84q-27 -48 -36 -52q-50 28 -108 92zM398 1028q92 48 132 48h8l12 -64 q-80 -24 -120 -44zM490 36q15 60 24 60q13 -8 120 -24v-60l-4 -4v-4q-140 13 -140 32zM642 1024v56l8 8h20q77 0 116 -20q-9 -64 -20 -64zM754 88l124 44l28 -60q-57 -31 -132 -52zM886 952v12l32 52q56 -29 112 -88l-48 -48q-51 49 -96 72zM974 204v4l80 96q49 -27 56 -40 q-49 -70 -88 -104h-4zM1058 780q45 32 60 32h4q11 -36 20 -36h36l8 -8v-144l-8 -8h-52l-8 8v44h-4l-4 -4h-4zM1102 420q17 124 24 124h52l8 -8v-40l-4 -16l4 -28v-136l-8 -8h-52l-8 8v96q-16 0 -16 8zM1118 8v140l8 8h52l8 -8v-140l-8 -8h-52zM1118 936v140l8 8h52l8 -8 v-140l-8 -8h-52z" />
<glyph unicode="b" horiz-adv-x="1371" d="M140 8v104l8 8h52l8 -8v-104l-8 -8h-52zM140 256v124l8 8h52l8 -8v-124l-8 -8h-52zM140 524v124l8 8h52l8 -8v-124l-8 -8h-52zM140 792v124l8 8h52l8 -8v-124l-8 -8h-52zM140 1060v124l8 8h52l8 -8v-124l-8 -8h-52zM140 1328v120l8 8h52l8 -8v-120l-8 -8h-52zM244 232 l52 36l88 -92l-40 -48h-4q-90 74 -96 104zM264 892q43 57 100 96q7 0 40 -48v-12q-11 0 -88 -76h-8zM464 56l28 60q38 -20 120 -36v-4q-5 -64 -16 -64q-50 0 -132 44zM492 1056q89 32 140 32l4 -4v-16l4 -48l-124 -28zM736 80q28 0 120 28h4l20 -60q-34 -24 -136 -40 q-8 20 -8 72zM736 1024l4 60h8q58 0 136 -36l-24 -60q-112 25 -124 36zM964 168q84 77 84 88h8l52 -40q-31 -45 -100 -100zM968 924v8l40 48q63 -50 100 -100q-42 -40 -60 -40q0 11 -80 84zM1116 368l36 120q64 -5 64 -20q-12 -78 -36 -128h-4q-60 21 -60 28zM1116 732 l64 24q36 -87 36 -136l-68 -8v4z" />
<glyph unicode="c" horiz-adv-x="1270" d="M111 488v96q0 28 8 44l64 -12l-4 -92l4 -32l-68 -8zM147 344q12 11 60 24q60 -102 60 -112l-52 -36q-68 99 -68 124zM159 768q19 48 76 116l52 -44l-68 -104q-60 20 -60 32zM315 112q0 23 44 60q40 -33 104 -68q-24 -60 -32 -60zM339 976v4q31 31 124 68q24 -46 24 -68 q-22 0 -104 -52h-12zM571 12q5 60 16 60l80 -4l36 4q8 -8 12 -68l-4 -4h-116q-21 0 -24 12zM571 1072l32 8h104l8 -8l-8 -64l-52 4l-72 -4zM827 100q76 39 108 64l40 -52v-4q-79 -63 -128 -68zM827 980v4q17 48 28 56q42 -8 120 -68v-4l-40 -52q-40 29 -108 64zM1027 248v8 l28 32h64l4 -4h4q-30 -59 -52 -76zM1027 824v8l44 36h8q46 -54 60 -96l-4 -4h-68z" />
<glyph unicode="d" horiz-adv-x="1362" d="M136 476l64 12l36 -124l-64 -24q-36 88 -36 136zM136 628q23 128 44 128l56 -28l-36 -116q-64 0 -64 16zM244 216l52 40h8q0 -11 84 -88l-44 -52q-62 48 -100 100zM244 880q38 51 100 100l40 -48v-8q-80 -73 -80 -84q-18 0 -60 40zM468 1048q78 36 136 36h8v-4l4 -60 l-124 -32zM472 48l20 60h4q92 -28 120 -28q0 -52 -8 -72q-102 16 -136 40zM712 1020l4 48v12l8 8q136 -20 136 -36q-19 -58 -28 -60q-63 20 -120 28zM740 80q82 16 120 36q15 -20 28 -64q-89 -38 -136 -40q-8 16 -12 68zM948 928v12q33 48 40 48q100 -77 100 -100l-44 -36 h-8q-77 76 -88 76zM968 176l88 92l52 -40q-33 -53 -96 -100h-4zM1144 8v104l8 8h52l8 -8v-104l-8 -8h-52zM1144 256v124l8 8h52l8 -8v-124l-8 -8h-52zM1144 524v124l8 8h52l8 -8v-124l-8 -8h-52zM1144 792v124l8 8h52l8 -8v-124l-8 -8h-52zM1144 1060v124l8 8h52l8 -8v-124 l-8 -8h-52zM1144 1328v120l8 8h52l8 -8v-120l-8 -8h-52z" />
<glyph unicode="e" horiz-adv-x="1279" d="M97 532v32q4 104 20 104l60 -16l-12 -124l-4 -4h-56zM117 384l68 20q19 -57 52 -112q-48 -36 -64 -36q-32 60 -56 128zM161 804q47 74 88 108q11 0 48 -44l-76 -100q-60 27 -60 36zM205 516v52l8 8h120l8 -8v-52l-8 -8h-120zM269 144v4l44 44h4l100 -72l-28 -56 q-30 0 -120 80zM361 1008q81 42 128 52q11 -12 20 -64l-116 -48h-4zM473 516v52l8 8h120l8 -8v-52l-8 -8h-120zM517 20l16 60q61 -12 124 -12l4 -4v-56l-8 -8h-40q-91 0 -96 20zM629 1016v56l8 8h28q107 -5 108 -20l-16 -64zM741 516v52l8 8h120l8 -8v-52l-8 -8h-120z M781 88v4q24 0 108 48h4q36 -40 36 -60q-80 -43 -128 -56q-20 44 -20 64zM873 952v4l28 52h12q63 -37 104 -84v-4l-44 -44zM989 224l76 100l56 -32q-38 -72 -84 -116zM1009 516v52l8 8h120l8 -8v-52l-8 -8h-120zM1049 772v4q24 24 60 36q52 -102 52 -132l-64 -16h-4 q-23 82 -44 108z" />
<glyph unicode="f" horiz-adv-x="750" d="M118 1024v56l8 8h92l8 -8v-56l-8 -8h-92zM298 1024v56l8 8h92l8 -8v-56l-8 -8h-92zM318 8v120l8 8h52l8 -8v-120l-8 -8h-52zM318 276v120l8 8h52l8 -8v-120l-8 -8h-52zM318 544v120l8 8h52l8 -8v-120l-8 -8h-52zM318 812v120l8 8h52l8 -8v-120l-8 -8h-52zM326 1208 q17 98 48 132h4q52 -27 52 -40l-36 -108q-68 5 -68 16zM482 1024v56l8 8h92l8 -8v-56l-8 -8h-92zM490 1440q43 24 112 24h24l8 -8v-52q0 -7 -104 -20l-4 -4l-16 4z" />
<glyph unicode="g" horiz-adv-x="1307" d="M102 585q0 53 20 132h4q22 0 64 -20q-21 -124 -28 -124q-60 0 -60 12zM114 433l64 20l44 -120q-44 -28 -60 -28q-27 43 -48 128zM186 849q17 36 92 108l44 -48v-4l-80 -92h-4zM214 -167l56 36l76 -96v-4l-48 -48q-57 65 -84 108v4zM250 185v4l44 44l96 -84 q-25 -48 -36 -52q-45 23 -104 88zM394 1037q80 42 136 48l16 -64l-120 -44zM418 -355l32 56l116 -44v-8l-16 -60q-114 31 -132 56zM486 45l20 60q50 -15 124 -24v-60l-8 -8q-136 12 -136 32zM638 1037v52l8 8h16q73 0 120 -20q-11 -64 -20 -64q-118 16 -124 24zM690 -359 q3 9 116 28l4 4l24 -64q-58 -28 -132 -28h-4l-8 8v52zM750 93l120 48q28 -47 28 -60v-4q-72 -35 -128 -48zM878 965q29 54 40 60q70 -50 108 -88l-48 -48q-45 41 -100 76zM926 -275l92 84l48 -36q0 -30 -104 -104l-36 52v4zM970 213v4l76 92q22 0 60 -36q-49 -70 -88 -104 h-4zM1054 793q39 15 68 44h52l8 -8v-124q-16 -20 -80 -32zM1082 -79q16 33 32 112h4q47 0 64 -8q-24 -136 -40 -136q-60 17 -60 32zM1098 425q17 144 24 144h52l8 -8v-124l-8 -8q-10 0 -12 -20h-8zM1114 169v124l8 8h52l8 -8v-124l-8 -8h-52zM1114 973v120l8 8h52l8 -8v-120 l-8 -8h-52z" />
<glyph unicode="h" horiz-adv-x="1143" d="M147 8v104l8 8h52l8 -8v-104l-8 -8h-52zM147 256v124l8 8h52l8 -8v-124l-8 -8h-52zM147 524v124l8 8h52l8 -8v-124l-8 -8h-52zM147 792v124l8 8h52l8 -8v-124l-8 -8h-52zM147 1060v124l8 8h52l8 -8v-124l-8 -8h-52zM147 1328v120l8 8h52l8 -8v-120l-8 -8h-52zM231 776v4 q30 97 60 120q0 -7 52 -32q-44 -109 -52 -112zM379 1008q50 49 128 68h4l16 -64q-72 -27 -100 -52h-8zM647 1020q0 64 12 64q62 0 136 -48l-36 -56q-32 20 -112 40zM851 900l48 40h8q64 -87 64 -128q-38 -16 -72 -16q-7 50 -48 104zM911 8v120l8 8h52l8 -8v-120l-8 -8h-52z M911 272v124l8 8h52l8 -8v-124l-8 -8h-52zM911 540v124l8 8h52l8 -8v-124l-8 -8h-52z" />
<glyph unicode="i" horiz-adv-x="515" d="M175 1302v10q11 88 88 88h3q88 -11 88 -88v-10q0 -68 -91 -81q-88 15 -88 81zM221 8v140l8 8h56l8 -8v-140l-8 -8h-56zM221 316v144l8 8h56l8 -8v-144l-8 -8h-56zM221 624v144l8 8h56l8 -8v-144l-8 -8h-56zM221 936v144l8 8h56l8 -8v-144l-8 -8h-56z" />
<glyph unicode="j" horiz-adv-x="745" d="M142 -331q13 56 20 56l124 -20v-56l-8 -8h-24q-102 0 -112 28zM394 -263q39 29 80 84q53 -25 56 -36q-70 -104 -108 -104l-28 52v4zM446 1341v12q22 100 96 100h24q59 0 92 -84v-32q-24 -96 -96 -96h-16q-100 22 -100 100zM510 -63l8 104v16l8 8h56l8 -8q0 -132 -20 -132 zM518 205v120l8 8h56l8 -8v-120l-8 -8h-56zM518 473v124l8 8h56l8 -8v-124l-8 -8h-56zM518 741v124l8 8h56l8 -8v-124l-8 -8h-56zM518 1009v76l8 8h56l8 -8v-76l-8 -8h-56z" />
<glyph unicode="k" horiz-adv-x="888" d="M135 6v104l8 8h52l8 -8v-104l-8 -8h-52zM135 253v124l8 8h52l8 -8v-124l-8 -8h-52zM135 520v124l8 8h52l8 -8v-124l-8 -8h-52zM135 787v124l8 8h52l8 -8v-124l-8 -8h-52zM135 1054v124l8 8h52l8 -8v-124l-8 -8h-52zM135 1321v120l8 8h52l8 -8v-120l-8 -8h-52zM291 620 q78 99 88 99q28 -14 48 -39v-4l-84 -100zM315 468v12l48 36l84 -99v-12l-44 -32h-8zM463 819q0 13 76 108h12q41 -30 48 -44l-88 -100zM483 265q5 12 44 40h8q14 -9 84 -100l-52 -44zM631 1026v8l84 100h4l48 -40l-84 -103zM651 58q14 20 52 44l60 -72v-8l-48 -40z" />
<glyph unicode="l" horiz-adv-x="501" d="M217 8v104l8 8h52l8 -8v-104l-8 -8h-52zM217 256v124l8 8h52l8 -8v-124l-8 -8h-52zM217 524v124l8 8h52l8 -8v-124l-8 -8h-52zM217 792v124l8 8h52l8 -8v-124l-8 -8h-52zM217 1060v124l8 8h52l8 -8v-124l-8 -8h-52zM217 1328v120l8 8h52l8 -8v-120l-8 -8h-52z" />
<glyph unicode="m" horiz-adv-x="1739" d="M147 8v140l8 8h52l8 -8v-140l-8 -8h-52zM147 316v144l8 8h52l8 -8v-144l-8 -8h-52zM147 624v144l8 8h52l8 -8v-144l-8 -8h-52zM147 936v144l8 8h52l8 -8v-144l-8 -8h-52zM207 792l28 76h4q14 0 64 -28q-27 -70 -36 -72zM315 992q70 77 120 88l24 -64q-43 -21 -92 -68h-4 q-40 30 -48 44zM575 1036v32q0 30 12 32h8q61 -4 128 -44q-22 -46 -40 -60q-10 18 -108 40zM775 916l52 40h8q56 -99 56 -132l-64 -16q-21 60 -52 108zM831 20v120l8 8h56l8 -8v-120l-8 -8h-56zM831 288v120l8 8h56l8 -8v-120l-8 -8h-56zM831 556v120l8 8h56l8 -8v-120 l-8 -8h-56zM895 796l28 72h4l60 -24v-4q-22 -72 -32 -72q-58 19 -60 28zM1003 992q84 88 120 88l24 -64q-50 -26 -92 -68h-4q-23 14 -48 44zM1263 1032v56l12 12h8q55 -2 128 -44v-4l-40 -56q-52 36 -108 36zM1463 916q7 12 52 40h8q52 -91 56 -132l-64 -16q-31 76 -52 108z M1519 20v120l8 8h52l8 -8v-120l-8 -8h-52zM1519 288v120l8 8h52l8 -8v-120l-8 -8h-52zM1519 556v120l8 8h52l8 -8v-120l-8 -8h-52z" />
<glyph unicode="n" horiz-adv-x="1143" d="M175 8v140l8 8h52l8 -8v-140l-8 -8h-52zM175 316v144l8 8h52l8 -8v-144l-8 -8h-52zM175 624v144l8 8h52l8 -8v-144l-8 -8h-52zM175 932v144l8 8h52l8 -8v-144l-8 -8h-52zM227 792q52 116 60 116l52 -28l-44 -112q-22 0 -68 24zM375 1020q62 55 132 68l16 -68 q-56 -21 -104 -52zM643 1032v4q0 60 12 60q52 -12 136 -48l-36 -56q-40 20 -112 40zM847 912l48 40h12q48 -76 60 -128q-34 -16 -72 -16v4q0 22 -48 100zM907 20v120l8 8h52l8 -8v-120l-8 -8h-52zM907 288v120l8 8h52l8 -8v-120l-8 -8h-52zM907 552v124l8 8h52l8 -8v-124 l-8 -8h-52z" />
<glyph unicode="o" horiz-adv-x="1302" d="M106 572v4q0 44 20 128q22 0 68 -20l-24 -124h-40q-21 0 -24 12zM118 420q43 16 68 16v-4q20 -70 44 -112l-64 -32q-48 102 -48 132zM190 836q29 50 92 108q15 -7 44 -48v-4l-80 -92h-4zM250 172l48 44h4q60 -58 92 -72v-12l-32 -48h-8q-51 30 -104 88zM398 1024 q43 28 136 52l16 -68l-120 -44zM490 28l20 60l124 -24v-56l-8 -8h-8q-128 8 -128 28zM642 1020v56l8 8h28q67 0 108 -20q-9 -64 -20 -64zM758 80v4q20 0 116 40h4l28 -60q-61 -32 -132 -52q-16 33 -16 68zM886 952v4l32 56q38 -17 112 -88l-48 -48zM974 200q72 79 72 96 q21 0 64 -36q-27 -49 -88 -108h-4q-43 38 -44 48zM1058 776q47 32 60 32q52 -100 52 -128q-7 -8 -68 -20q-9 44 -44 116zM1098 412q12 36 24 124h56l8 -8v-12q0 -44 -16 -120h-8z" />
<glyph unicode="p" horiz-adv-x="1371" d="M143 37l8 8h52l8 -8v-124l-8 -8h-52l-8 8v124zM143 181v124l8 8h52l8 -8v-124l-8 -8h-52zM143 -231l8 8h52l8 -8v-120l-8 -8h-52l-8 8v120zM143 449v124l8 8h52l8 -8v-124l-8 -8h-52zM143 717v124l8 8h52l8 -8v-124l-8 -8h-52zM143 985v104l8 8h52l8 -8v-104l-8 -8h-52z M247 878q33 53 96 100h4l40 -48l-88 -92zM267 218l44 36h8q77 -76 88 -76v-12q-33 -48 -40 -48q-100 77 -100 100zM467 1054q89 38 136 40q8 -16 12 -68q-82 -16 -120 -36zM495 54q19 58 28 60q63 -20 120 -28l-4 -48v-12l-8 -8q-136 20 -136 36zM739 86l124 32l24 -60 q-78 -36 -136 -36h-8v4zM739 1026q0 52 8 72q102 -16 136 -40l-20 -60h-4q-92 28 -120 28zM967 938q32 45 44 52q62 -48 100 -100l-52 -40h-8q0 11 -84 88zM971 174v8q80 73 80 84q18 0 60 -40q-38 -51 -100 -100zM1119 378l36 116q64 0 64 -16q-22 -128 -44 -128zM1119 742 l64 24q36 -87 36 -136l-64 -12z" />
<glyph unicode="q" horiz-adv-x="1357" d="M131 487q22 8 68 8v-4l32 -116l-64 -24q-36 88 -36 136zM131 639q23 128 44 128l56 -28l-36 -120q-64 5 -64 20zM239 227q42 40 60 40q0 -11 80 -84v-8l-40 -48q-63 50 -100 100zM239 891q31 46 100 100q12 -7 44 -52q-84 -77 -84 -88h-8zM463 59l24 60q112 -25 124 -36 l-4 -60h-8q-58 0 -136 36zM467 1059q34 24 136 40q8 -20 8 -72q-28 0 -120 -28h-4zM707 87l124 28l24 -64q-88 -32 -140 -32l-4 4v16zM735 1027v4q5 64 16 64q50 0 132 -44l-28 -60q-38 20 -120 36zM943 167v12q11 0 88 76h8l44 -40q-43 -57 -100 -96q-7 0 -40 48zM963 931 l40 48h4q96 -80 96 -104l-52 -36zM1139 37l8 8h52l8 -8v-124l-8 -8h-52l-8 8v124zM1139 181v124l8 8h52l8 -8v-124l-8 -8h-52zM1139 -231l8 8h52l8 -8v-120l-8 -8h-52l-8 8v120zM1139 449v124l8 8h52l8 -8v-124l-8 -8h-52zM1139 717v124l8 8h52l8 -8v-124l-8 -8h-52z M1139 985v104l8 8h52l8 -8v-104l-8 -8h-52z" />
<glyph unicode="r" horiz-adv-x="718" d="M146 8v140l8 8h52l8 -8v-140l-8 -8h-52zM146 316v144l8 8h52l8 -8v-144l-8 -8h-52zM146 624v144l8 8h52l8 -8v-144l-8 -8h-52zM146 936v140l8 8h52l8 -8v-140l-8 -8h-52zM254 844q24 72 64 120h4q45 -25 52 -40l-60 -108h-4q-48 17 -56 28zM430 1068q61 32 136 32l8 -8 v-52q0 -12 -56 -12l-60 -20q-28 45 -28 60z" />
<glyph unicode="s" horiz-adv-x="860" d="M115 276v108l8 8h52l8 -8v-80l4 -20l-68 -12zM147 808l12 8h52q7 0 20 -64l24 -32v-4l-44 -44h-4q-60 65 -60 136zM171 136l52 36h4q35 -39 88 -80q-27 -52 -36 -56q-53 24 -108 100zM183 956v8q59 81 108 100q32 -48 32 -64q-30 -7 -84 -76zM331 592l24 60q18 0 128 -44 v-4l-20 -60h-4q-83 24 -128 48zM423 64l116 36q32 -46 32 -60q-76 -40 -132 -40h-4q-12 0 -12 64zM435 1036v56l8 8q85 0 140 -40l-32 -56q-86 32 -116 32zM571 488l40 52q86 -62 100 -108q-44 -28 -60 -28h-4q-2 16 -76 84zM623 184q31 54 44 104l4 4h4q60 0 60 -20 q0 -46 -60 -128zM623 920q42 24 64 24q28 -83 28 -140l-4 -4h-60q-6 0 -20 92q-7 0 -8 28z" />
<glyph unicode="t" horiz-adv-x="768" d="M147 1024v52l8 8h92l8 -8v-52l-8 -8h-92zM327 1024v52l8 8h92l8 -8v-52l-8 -8h-92zM347 8v108l8 8h52l8 -8v-108l-8 -8h-52zM347 268v128l8 8h52l8 -8v-128l-8 -8h-52zM347 548v132l8 8h52l8 -8v-132l-8 -8h-52zM347 832v128l8 8h52l8 -8v-128l-8 -8h-52zM347 1112v120 l8 8h52l8 -8v-120l-8 -8h-52zM347 1328v120l8 8h52l8 -8v-120l-8 -8h-52zM507 1024v52l8 8h92l8 -8v-52l-8 -8h-92z" />
<glyph unicode="u" horiz-adv-x="1143" d="M152 420v124l8 8h52l8 -8v-124l-8 -8h-52zM152 688v124l8 8h52l8 -8v-124l-8 -8h-52zM152 956v120l8 8h52l8 -8v-120l-8 -8h-52zM160 272l68 20q21 -65 52 -108q-41 -40 -60 -40q-60 102 -60 128zM336 48q28 56 40 56q39 -22 108 -36l4 -4q-5 -64 -20 -64zM604 72 q76 32 104 56h8l36 -48v-4q-39 -40 -128 -68q-8 9 -20 64zM788 224l52 108q60 -20 60 -32l-56 -112zM912 8v140l8 8h52l8 -8v-140l-8 -8h-52zM912 316v140l8 8h52l8 -8v-140l-8 -8h-52zM912 624v144l8 8h52l8 -8v-144l-8 -8h-52zM912 932v144l8 8h52l8 -8v-144l-8 -8h-52z " />
<glyph unicode="v" horiz-adv-x="1187" d="M138 1092q49 24 64 24l48 -124q-43 -24 -68 -24zM234 840l64 28l48 -128l-64 -24zM330 592l64 24l48 -124q-12 -11 -60 -24h-8zM426 340q20 15 60 24h8l44 -124l-64 -24zM522 92q53 24 72 24q64 -19 64 -28q-29 -79 -40 -88l-28 12l-32 -12zM642 248l44 116h8 q40 -9 60 -24q-43 -124 -56 -124q-56 19 -56 32zM738 496q43 120 56 120q48 -17 56 -28l-44 -120h-8q-60 16 -60 28zM834 744l52 124q60 -23 60 -32q-40 -109 -52 -120q-58 20 -60 28zM930 992q44 120 52 124q60 -15 60 -32l-44 -116q-25 0 -68 24z" />
<glyph unicode="w" horiz-adv-x="1610" d="M102 1088q12 11 64 20l40 -128l-64 -20q-12 16 -40 128zM178 832l64 20l40 -128l-64 -20q-12 16 -40 128zM254 576l64 20l40 -128q-46 -20 -68 -20zM330 320l64 20l40 -128q-12 -11 -64 -20h-4zM406 64q40 11 40 20l4 -4h12l4 4h4q0 -10 40 -20v-4l-20 -60l-36 8l-28 -8 q-20 46 -20 64zM482 212q31 128 44 128q60 -17 60 -24l-36 -124h-4q-64 12 -64 20zM558 468q31 128 44 128q60 -17 60 -24q-33 -113 -44 -124h-4q-56 15 -56 20zM634 724q24 101 40 128q64 -13 64 -24q-33 -113 -44 -124zM710 980q29 128 44 128l28 -8l28 8q16 -25 40 -128 l-64 -20l-4 16h-4q0 -16 -8 -16zM822 832l64 20q36 -83 36 -132l-60 -16zM898 576l64 20q36 -83 36 -132l-60 -16h-4zM974 320l64 20q36 -83 36 -132l-60 -16h-4zM1050 64q40 10 40 20l4 -4h12l4 4h4q0 -12 36 -16l4 -4v-4q-12 -60 -24 -60l-28 8l-32 -8zM1126 216 q33 113 44 124q60 -17 60 -24l-36 -124h-4q-64 11 -64 24zM1202 472l40 124q64 -13 64 -24l-36 -124q-68 12 -68 24zM1278 728q33 116 44 124q60 -15 60 -24q-32 -124 -44 -124q-60 15 -60 24zM1354 984q35 121 44 124q60 -12 60 -24q-28 -105 -40 -124q-64 15 -64 24z" />
<glyph unicode="x" horiz-adv-x="998" d="M138 40q58 105 76 120l52 -40v-4l-72 -116q-53 30 -56 40zM182 1088q50 36 60 36l68 -116v-4l-56 -40q-54 82 -72 124zM282 284q59 105 72 116q53 -30 56 -40l-72 -116h-8q-48 28 -48 40zM326 848l56 36l72 -124q-50 -36 -60 -36q-68 113 -68 124zM426 520v8l64 112 l24 -4l16 4l64 -112v-8q-40 -36 -60 -36q0 13 -24 40q-8 0 -24 -40q-20 0 -60 36zM566 764l72 120q56 -30 56 -44l-72 -116q-53 30 -56 40zM610 360q0 10 60 40q68 -112 68 -124l-48 -32h-8zM710 1004v4l72 116q53 -30 56 -40q-58 -105 -76 -120zM754 116v4l56 40 q72 -112 72 -124q-50 -36 -60 -36z" />
<glyph unicode="y" horiz-adv-x="1150" d="M138 -125l64 24q28 -75 56 -108v-8l-48 -32h-4q-59 76 -68 124zM138 450v126l8 8h52l8 -8v-126l-8 -8h-52zM138 723v127l8 8h52l8 -8v-127l-8 -8h-52zM138 996v123l8 8h52l8 -8v-123l-8 -8h-52zM146 299l64 20q35 -87 56 -110q-42 -41 -60 -41q-52 87 -60 131zM306 -353 q18 36 44 56q29 -30 100 -56l4 -4v-4q-16 -60 -24 -60q-48 11 -124 68zM322 70q27 57 36 57q43 -27 112 -45v-4q-8 -54 -16 -65q-96 26 -132 57zM574 -377q0 9 88 24q0 6 32 12l24 -64q-64 -32 -136 -32l-8 8v52zM590 78q69 13 120 37q28 -53 28 -65q-85 -40 -136 -41z M794 -277l80 96h4q52 -30 52 -36q-15 -38 -88 -108h-8q0 8 -40 48zM802 193l68 106l60 -33q-28 -57 -72 -118h-8q-40 30 -48 45zM922 -65q22 124 28 124h52l8 -8v-8q-8 -128 -28 -128zM942 195v124l8 8h52l8 -8v-124l-8 -8h-52zM942 463v124l8 8h52l8 -8v-124l-8 -8h-52z M942 731v124l8 8h52l8 -8v-124l-8 -8h-52zM942 999v120l8 8h52l8 -8v-120l-8 -8h-52z" />
<glyph unicode="z" horiz-adv-x="957" d="M97 8v99q27 41 36 41l52 -41l-20 -29v-25l4 -16q-5 -37 -12 -37h-52zM141 1056v54l8 8h124l8 -8v-54l-8 -8h-124zM213 259v4q64 92 84 107q38 -37 48 -37v-8l-80 -107q-47 30 -52 41zM261 8v54l8 8h120l8 -8v-54l-8 -8h-120zM377 477v8l80 103l52 -41q-71 -104 -80 -107 h-8zM409 1056v54l8 8h124l8 -8v-54l-8 -8h-124zM489 8v54l8 8h124l8 -8v-54l-8 -8h-124zM537 699l80 107h4l48 -41v-5q-67 -95 -84 -106zM677 1056v54l8 8h120l8 -8v-54l-8 -8h-120zM697 921q76 91 76 102h12l48 -41l-80 -107h-4q-45 33 -52 46zM717 8v54l8 8h120l8 -8v-54 l-8 -8h-120z" />
<glyph unicode="{" horiz-adv-x="1024" d="M174 477v109q9 0 23.5 -1t21.5 -1q138 0 195 63t57 217v242q0 223 70 297t266 74h47v-107h-37q-131 0 -177 -49.5t-46 -204.5v-242q0 -168 -43.5 -240t-153.5 -104q110 -31 153.5 -103t43.5 -241v-241q0 -155 45 -204.5t170 -49.5q7 0 22 1t23 1v-107h-47 q-197 0 -266.5 72.5t-69.5 296.5v244q0 154 -57 217t-195 63q-7 0 -21.5 -1t-23.5 -1z" />
<glyph unicode="|" horiz-adv-x="1024" d="M459 -483v2048h108v-2048h-108z" />
<glyph unicode="}" horiz-adv-x="1024" d="M172 -307h39q130 0 175.5 49t45.5 203v241q0 171 43 242t154 102q-111 32 -154 103t-43 241v242q0 157 -45 206.5t-170 49.5q-7 0 -22 -1t-23 -1v107h47q196 0 266 -74t70 -297v-242q0 -154 57 -217t195 -63q7 0 22 1t23 1v-109q-8 0 -23 1t-22 1q-138 0 -195 -63 t-57 -217v-244q0 -223 -69.5 -296t-266.5 -73h-47v107z" />
<glyph unicode="~" horiz-adv-x="1706" d="M180 571v5q51 50 139 92l32 -74l-120 -79h-5zM486 631v65l9 9q123 -9 162 -28q-19 -74 -28 -74q-143 19 -143 28zM782 557q14 74 28 74l143 -51q-12 -74 -23 -74q-148 40 -148 51zM1097 492v65l9 9h42q59 0 92 14l28 -78q-57 -19 -116 -19h-46zM1379 631l125 83 q14 -7 51 -60q-55 -54 -139 -92z" />
<glyph unicode="&#xa0;" />
<glyph unicode="&#xa1;" horiz-adv-x="588" d="M223 0v1075h142v-1075h-142zM223 1190v266h142v-266h-142z" />
<glyph unicode="&#xa2;" d="M70 723q0 222 130 382.5t337 192.5v211h133v-206q173 -20 287 -120t163 -274h-147q-42 134 -134 202.5t-231 68.5q-164 0 -278.5 -131.5t-114.5 -325.5q0 -193 115.5 -323t287.5 -130q129 0 224 74.5t131 204.5h147q-58 -181 -172.5 -283t-277.5 -119v-229h-133v232 q-202 28 -334.5 192t-132.5 381z" />
<glyph unicode="&#xa3;" d="M68 672v139h145q-22 69 -31.5 120t-9.5 95q0 196 131.5 326.5t333.5 130.5q173 0 287 -99.5t149 -279.5h-131q-26 119 -106.5 185.5t-196.5 66.5q-145 0 -236.5 -91.5t-91.5 -234.5q0 -48 13.5 -102t42.5 -117h493v-141h-385q42 -75 61 -144t19 -147q0 -74 -17 -133.5 t-54 -118.5q30 -3 58.5 -4.5t55.5 -1.5q188 0 278.5 69t90.5 213q0 19 -4 49.5t-13 77.5h142q8 -44 11 -70.5t3 -47.5q0 -91 -31.5 -171t-89.5 -137q-57 -55 -136.5 -79.5t-213.5 -24.5h-514v127h223q42 52 61 108.5t19 129.5q0 78 -23 147t-82 160h-251z" />
<glyph unicode="&#xa4;" d="M-6 532l26 111h119v168h-137l27 111h110v22q0 141 20 212.5t66 133.5q72 95 176.5 146t229.5 51q210 0 344 -129.5t143 -284.5h-145q-22 136 -112.5 210.5t-229.5 74.5q-165 0 -257.5 -101.5t-92.5 -283.5v-51h639l-27 -111h-612v-168h591l-26 -111h-565v-51 q0 -181 92.5 -282t257.5 -101q134 0 222.5 69t115.5 195h147q-8 -56 -25 -101t-47 -87q-69 -97 -176.5 -150t-236.5 -53q-125 0 -229 50.5t-179 146.5q-44 56 -64 136.5t-20 207.5v20h-145z" />
<glyph unicode="&#xa5;" d="M45 1446h162l375 -748l368 748h162l-260 -500h184v-110h-243l-88 -168h331v-111h-389v-557h-141v557h-391v111h334l-87 168h-247v110h188z" />
<glyph unicode="&#xa6;" horiz-adv-x="1024" d="M459 -350v758h108v-758h-108zM459 674v758h108v-758h-108z" />
<glyph unicode="&#xa7;" horiz-adv-x="1024" d="M109 694q0 99 48.5 171.5t149.5 125.5q-55 42 -79.5 91t-24.5 116q0 125 87.5 206t225.5 81q146 0 229.5 -83.5t83.5 -230.5v-24h-128q-2 105 -53 162t-144 57q-73 0 -117.5 -45.5t-44.5 -118.5q0 -57 35 -105.5t106 -90.5l203 -121q123 -73 174 -145t51 -169 q0 -88 -49 -159t-145 -121q53 -47 79.5 -104t26.5 -124q0 -123 -92 -202.5t-233 -79.5q-151 0 -240.5 85.5t-89.5 229.5q0 6 1 16t1 15h137v-12q0 -101 51 -156t144 -55q85 0 133.5 44t48.5 122q0 62 -33.5 108.5t-128.5 104.5l-215 133q-98 61 -148 131.5t-50 146.5z M248 729q0 -54 37 -106.5t106 -96.5l248 -157q67 45 97 89.5t30 100.5q0 62 -35 110.5t-121 102.5l-221 137q-68 -27 -104.5 -74t-36.5 -106z" />
<glyph unicode="&#xa8;" horiz-adv-x="1024" d="M256 1313v164h141v-164h-141zM625 1313v164h143v-164h-143z" />
<glyph unicode="&#xa9;" horiz-adv-x="1706" d="M121 723q0 145 56.5 279.5t162.5 242.5q101 103 232 157t280 54t283.5 -55.5t238.5 -159.5q102 -102 156.5 -235.5t54.5 -282.5q0 -150 -53.5 -281t-157.5 -233q-107 -106 -242 -162.5t-280 -56.5t-278 55.5t-238 161.5q-105 104 -160 237t-55 279zM201 723 q0 -129 49.5 -247t142.5 -212q94 -93 212 -142.5t247 -49.5q130 0 250.5 50t216.5 144q91 89 138.5 206t47.5 251q0 132 -48.5 251t-139.5 210q-94 94 -213 143t-252 49q-132 0 -249 -48t-208 -140q-94 -96 -144 -215.5t-50 -249.5zM469 727q0 203 107.5 326t283.5 123 q135 0 226.5 -72t103.5 -189h-117q-18 80 -75 124t-142 44q-122 0 -190 -95t-68 -267q0 -166 69 -260t189 -94q89 0 151 50.5t78 137.5h115q-11 -125 -108.5 -205t-241.5 -80q-177 0 -279 122t-102 335z" />
<glyph unicode="&#xaa;" horiz-adv-x="969" d="M43 1067q0 173 123 289.5t309 116.5q95 0 174.5 -36t132.5 -104v123h103v-770h-103v123q-49 -67 -134 -105t-183 -38q-181 0 -301.5 116t-120.5 285zM152 1063q0 -128 93.5 -216.5t223.5 -88.5q126 0 219.5 93t93.5 224q0 123 -94 215t-217 92q-132 0 -225.5 -92 t-93.5 -227z" />
<glyph unicode="&#xab;" horiz-adv-x="934" d="M115 549l245 321h138l-248 -321l248 -320h-138zM418 549l246 321h137l-246 -321l246 -320h-137z" />
<glyph unicode="&#xac;" horiz-adv-x="1706" d="M254 758v100h1198v-502h-96v402h-1102z" />
<glyph unicode="&#xad;" horiz-adv-x="659" d="M94 483v133h469v-133h-469z" />
<glyph unicode="&#xae;" horiz-adv-x="1706" d="M121 723q0 144 56.5 279.5t162.5 242.5q101 103 232 157t280 54q152 0 285.5 -55t236.5 -160q102 -102 156.5 -235.5t54.5 -282.5q0 -150 -53.5 -281t-157.5 -233q-107 -106 -242 -162.5t-280 -56.5q-147 0 -279.5 55.5t-236.5 161.5q-105 104 -160 237t-55 279zM201 723 q0 -129 49.5 -247t142.5 -212q94 -93 212 -142.5t247 -49.5q130 0 250.5 50t216.5 144q91 89 138.5 204.5t47.5 250.5q0 134 -48 253t-138 210q-94 93 -213.5 142.5t-253.5 49.5q-130 0 -246.5 -48t-208.5 -140q-95 -97 -145.5 -216.5t-50.5 -248.5zM565 313v844h309 q178 0 263.5 -57t85.5 -176q0 -89 -54 -149t-145 -73l188 -389h-145l-178 371h-197v-371h-127zM692 768h158q134 0 188 33.5t54 113.5q0 83 -57 119.5t-185 36.5h-158v-303z" />
<glyph unicode="&#xaf;" horiz-adv-x="1024" d="M256 1346v116h512v-116h-512z" />
<glyph unicode="&#xb0;" horiz-adv-x="674" d="M59 1174q0 116 81.5 197t197.5 81q115 0 195.5 -81.5t80.5 -196.5t-81.5 -197t-196.5 -82q-117 0 -197 81t-80 198zM129 1174q0 -87 61 -147t148 -60t147 60t60 147q0 86 -60.5 147t-146.5 61t-147.5 -61t-61.5 -147z" />
<glyph unicode="&#xb1;" horiz-adv-x="1706" d="M254 51v99h1198v-99h-1198zM254 723v98h551v348h98v-348h549v-98h-549v-348h-98v348h-551z" />
<glyph unicode="&#xb2;" horiz-adv-x="764" d="M88 582v84l340 295q97 81 131.5 133.5t34.5 107.5q0 83 -59 138t-150 55q-93 0 -149 -56.5t-56 -150.5v-25h-92v13q0 132 85.5 215.5t219.5 83.5q122 0 207.5 -80.5t85.5 -198.5q0 -69 -36 -131t-113 -127l-324 -272h471v-84h-596z" />
<glyph unicode="&#xb3;" horiz-adv-x="764" d="M72 848h96v-8q0 -87 59 -144t146 -57q94 0 155.5 57t61.5 146q0 99 -65 150.5t-189 51.5h-45v72q8 -1 16.5 -1.5t24.5 -0.5q94 0 142 36t48 107q0 61 -40.5 100.5t-102.5 39.5q-71 0 -110.5 -38.5t-41.5 -109.5h-88q6 104 71.5 164t172.5 60q99 0 168.5 -64t69.5 -152 q0 -52 -22.5 -90.5t-72.5 -70.5q80 -39 120 -100.5t40 -145.5q0 -121 -87.5 -203t-219.5 -82q-142 0 -223.5 75t-83.5 208z" />
<glyph unicode="&#xb4;" horiz-adv-x="1024" d="M387 1247l209 350h152l-269 -350h-92z" />
<glyph unicode="&#xb5;" horiz-adv-x="1110" d="M-111 -426l316 1491h139l-125 -592q-8 -39 -12 -73t-4 -66q0 -117 58 -180.5t167 -63.5q125 0 215 107.5t133 310.5l121 557h139l-164 -770q-12 -55 -17 -85t-5 -48q0 -33 17 -49.5t51 -16.5q7 0 16.5 0.5t19.5 1.5l-20 -110q-19 -5 -41 -8t-45 -3q-70 0 -103.5 36 t-33.5 110v14q-42 -77 -120 -119.5t-179 -42.5q-92 0 -161 40t-108 116l-114 -557h-140z" />
<glyph unicode="&#xb6;" horiz-adv-x="1024" d="M84 1130q0 157 107.5 253t285.5 96h463v-70h-127v-1409h-82v1409h-186v-1409h-84v782q-174 8 -275.5 102.5t-101.5 245.5z" />
<glyph unicode="&#xb7;" horiz-adv-x="578" d="M197 729q0 39 27 66.5t65 27.5t66 -28t28 -66t-27.5 -65t-66.5 -27t-65.5 27t-26.5 65z" />
<glyph unicode="&#xb8;" horiz-adv-x="1024" d="M272 -342q92 -20 145.5 -27.5t92.5 -7.5q64 0 96.5 22.5t32.5 67.5q0 55 -34.5 80t-108.5 25q-19 0 -28.5 -0.5t-18.5 -1.5v184h63v-111h20q107 0 163.5 -44t56.5 -128t-59 -130t-169 -46q-57 0 -116.5 9t-135.5 30v78z" />
<glyph unicode="&#xb9;" horiz-adv-x="764" d="M178 1380v76h268v-874h-100v798h-168z" />
<glyph unicode="&#xba;" horiz-adv-x="932" d="M41 1071q0 169 124 289.5t294 120.5q180 0 306 -118t126 -282q0 -173 -123.5 -294t-300.5 -121q-180 0 -303 119t-123 286zM152 1071q0 -133 90 -222t225 -89q133 0 223 89.5t90 223.5q0 136 -91 224.5t-230 88.5q-127 0 -217 -90.5t-90 -224.5z" />
<glyph unicode="&#xbb;" horiz-adv-x="934" d="M133 229l248 320l-248 321h137l246 -321l-246 -320h-137zM438 229l246 320l-246 321h135l248 -321l-248 -320h-135z" />
<glyph unicode="&#xbc;" horiz-adv-x="1800" d="M170 1386v70h256v-815h-96v745h-160zM387 -29l905 1514h119l-903 -1514h-121zM1126 158v69l416 588h103v-588h100v-69h-100v-158h-89v158h-430zM1221 227h338l4 494z" />
<glyph unicode="&#xbd;" horiz-adv-x="1800" d="M170 1386v70h256v-815h-96v745h-160zM387 -29l905 1514h119l-903 -1514h-121zM1155 0v80l326 272q96 82 126.5 129.5t30.5 98.5q0 76 -56 128t-142 52q-90 0 -143.5 -53t-53.5 -142v-22h-88v12q0 124 81.5 201.5t209.5 77.5q116 0 198 -75.5t82 -185.5q0 -63 -34 -121 t-109 -120l-309 -252h450v-80h-569z" />
<glyph unicode="&#xbe;" horiz-adv-x="1800" d="M68 889h92v-6q0 -81 56.5 -135t139.5 -54q90 0 148.5 53t58.5 136q0 93 -62 141.5t-182 48.5h-43l1 68q6 -1 15 -1.5t25 -0.5q91 0 137 33.5t46 99.5q0 57 -39.5 94t-98.5 37q-67 0 -106 -36.5t-39 -100.5h-84q6 95 69 151t165 56q94 0 159.5 -59.5t65.5 -141.5 q0 -49 -21 -85t-67 -67q75 -35 112 -92t37 -137q0 -112 -83.5 -189t-209.5 -77q-134 0 -211.5 70t-80.5 194zM387 -29l905 1514h119l-903 -1514h-121zM1126 158v69l416 588h103v-588h100v-69h-100v-158h-89v158h-430zM1221 227h338l4 494z" />
<glyph unicode="&#xbf;" horiz-adv-x="948" d="M45 399q0 188 167 338q15 13 24 21q82 76 116 144.5t35 155.5l143 1q0 -94 -38.5 -183t-114.5 -171q-18 -20 -54 -54q-126 -118 -126 -252q0 -130 70.5 -205t193.5 -75q129 0 201.5 84t78.5 241h148q-3 -213 -123 -343t-313 -130q-182 0 -295 119t-113 309zM387 1190v266 h143v-266h-143z" />
<glyph unicode="&#xc0;" horiz-adv-x="1223" d="M-51 32l48 116q30 0 68 -28l-56 -120h-4q-56 20 -56 32zM57 268v8q39 111 56 120l56 -28l-48 -120h-8zM161 516l48 124h8l56 -20v-8l-12 -36h124l8 -8v-52l-8 -8h-120l-8 8v48h-4q-23 -71 -36 -72zM176 1947h152l209 -350h-92zM265 768q44 106 60 120q56 -20 56 -32 l-48 -116q-30 0 -68 28zM373 1012l48 120h8l56 -20v-8q-39 -111 -56 -120zM477 1260l88 196h56q16 -20 88 -200q-49 -24 -68 -24q-38 108 -48 108q-9 0 -48 -108q-30 0 -68 28zM525 516v52l8 8h120l8 -8v-52l-8 -8h-120zM701 1104v8l56 20h8l48 -124h-4l-56 -24 q-17 23 -52 120zM793 516v52l8 8h124v4l-12 32v8l56 20h8l48 -124l-60 -24q-19 29 -32 72h-4v-48l-8 -8h-120zM805 864l60 24q16 -23 56 -124q-49 -24 -68 -24zM1017 372h4l56 24q17 -23 52 -120v-8l-56 -20h-8zM1121 124q49 24 68 24l48 -124l-64 -24z" />
<glyph unicode="&#xc1;" horiz-adv-x="1223" d="M-51 32l48 116q30 0 68 -28l-56 -120h-4q-56 20 -56 32zM57 268v8q39 111 56 120l56 -28l-48 -120h-8zM161 516l48 124h8l56 -20v-8l-12 -36h124l8 -8v-52l-8 -8h-120l-8 8v48h-4q-23 -71 -36 -72zM265 768q44 106 60 120q56 -20 56 -32l-48 -116q-30 0 -68 28zM287 1597 l209 350h152l-269 -350h-92zM373 1012l48 120h8l56 -20v-8q-39 -111 -56 -120zM477 1260l88 196h56q16 -20 88 -200q-49 -24 -68 -24q-38 108 -48 108q-9 0 -48 -108q-30 0 -68 28zM525 516v52l8 8h120l8 -8v-52l-8 -8h-120zM701 1104v8l56 20h8l48 -124h-4l-56 -24 q-17 23 -52 120zM793 516v52l8 8h124v4l-12 32v8l56 20h8l48 -124l-60 -24q-19 29 -32 72h-4v-48l-8 -8h-120zM805 864l60 24q16 -23 56 -124q-49 -24 -68 -24zM1017 372h4l56 24q17 -23 52 -120v-8l-56 -20h-8zM1121 124q49 24 68 24l48 -124l-64 -24z" />
<glyph unicode="&#xc2;" horiz-adv-x="1223" d="M-51 32l48 116q30 0 68 -28l-56 -120h-4q-56 20 -56 32zM57 268v8q39 111 56 120l56 -28l-48 -120h-8zM136 1597l200 350h152l200 -350h-92l-184 264l-184 -264h-92zM161 516l48 124h8l56 -20v-8l-12 -36h124l8 -8v-52l-8 -8h-120l-8 8v48h-4q-23 -71 -36 -72zM265 768 q44 106 60 120q56 -20 56 -32l-48 -116q-30 0 -68 28zM373 1012l48 120h8l56 -20v-8q-39 -111 -56 -120zM477 1260l88 196h56q16 -20 88 -200q-49 -24 -68 -24q-38 108 -48 108q-9 0 -48 -108q-30 0 -68 28zM525 516v52l8 8h120l8 -8v-52l-8 -8h-120zM701 1104v8l56 20h8 l48 -124h-4l-56 -24q-17 23 -52 120zM793 516v52l8 8h124v4l-12 32v8l56 20h8l48 -124l-60 -24q-19 29 -32 72h-4v-48l-8 -8h-120zM805 864l60 24q16 -23 56 -124q-49 -24 -68 -24zM1017 372h4l56 24q17 -23 52 -120v-8l-56 -20h-8zM1121 124q49 24 68 24l48 -124l-64 -24z " />
<glyph unicode="&#xc3;" horiz-adv-x="1223" d="M-51 32l48 116q30 0 68 -28l-56 -120h-4q-56 20 -56 32zM57 268v8q39 111 56 120l56 -28l-48 -120h-8zM123 1640q21 90 71.5 137.5t123.5 47.5q16 0 29 -2.5t24 -6.5l96 -30q13 -5 28 -8t28 -3q33 0 56 17.5t40 56.5h82q-26 -91 -74 -137.5t-117 -46.5q-14 0 -30 2.5 t-35 7.5l-97 31q-15 4 -27.5 6t-25.5 2q-30 0 -53.5 -19t-38.5 -55h-80zM161 516l48 124h8l56 -20v-8l-12 -36h124l8 -8v-52l-8 -8h-120l-8 8v48h-4q-23 -71 -36 -72zM265 768q44 106 60 120q56 -20 56 -32l-48 -116q-30 0 -68 28zM373 1012l48 120h8l56 -20v-8 q-39 -111 -56 -120zM477 1260l88 196h56q16 -20 88 -200q-49 -24 -68 -24q-38 108 -48 108q-9 0 -48 -108q-30 0 -68 28zM525 516v52l8 8h120l8 -8v-52l-8 -8h-120zM701 1104v8l56 20h8l48 -124h-4l-56 -24q-17 23 -52 120zM793 516v52l8 8h124v4l-12 32v8l56 20h8l48 -124 l-60 -24q-19 29 -32 72h-4v-48l-8 -8h-120zM805 864l60 24q16 -23 56 -124q-49 -24 -68 -24zM1017 372h4l56 24q17 -23 52 -120v-8l-56 -20h-8zM1121 124q49 24 68 24l48 -124l-64 -24z" />
<glyph unicode="&#xc4;" horiz-adv-x="1223" d="M-51 32l48 116q30 0 68 -28l-56 -120h-4q-56 20 -56 32zM57 268v8q39 111 56 120l56 -28l-48 -120h-8zM156 1663v164h141v-164h-141zM161 516l48 124h8l56 -20v-8l-12 -36h124l8 -8v-52l-8 -8h-120l-8 8v48h-4q-23 -71 -36 -72zM265 768q44 106 60 120q56 -20 56 -32 l-48 -116q-30 0 -68 28zM373 1012l48 120h8l56 -20v-8q-39 -111 -56 -120zM477 1260l88 196h56q16 -20 88 -200q-49 -24 -68 -24q-38 108 -48 108q-9 0 -48 -108q-30 0 -68 28zM525 516v52l8 8h120l8 -8v-52l-8 -8h-120zM525 1663v164h143v-164h-143zM701 1104v8l56 20h8 l48 -124h-4l-56 -24q-17 23 -52 120zM793 516v52l8 8h124v4l-12 32v8l56 20h8l48 -124l-60 -24q-19 29 -32 72h-4v-48l-8 -8h-120zM805 864l60 24q16 -23 56 -124q-49 -24 -68 -24zM1017 372h4l56 24q17 -23 52 -120v-8l-56 -20h-8zM1121 124q49 24 68 24l48 -124l-64 -24z " />
<glyph unicode="&#xc5;" horiz-adv-x="1223" d="M-51 0l565 1456h172l563 -1456h-153l-174 457h-648l-174 -457h-151zM324 588h548l-276 731zM371 1743q0 95 67 162t162 67t162 -67t67 -162t-67 -162.5t-162 -67.5q-96 0 -162.5 67t-66.5 163zM461 1743q0 -59 41 -100t100 -41q60 0 101.5 41t41.5 100t-42.5 102 t-100.5 43t-99.5 -42.5t-41.5 -102.5z" />
<glyph unicode="&#xc6;" horiz-adv-x="1810" d="M-135 0l1001 1456h824v-143h-613v-510h613v-144h-613v-518h613v-141h-756v483h-567l-330 -483h-172zM465 627h473l6 686h-16z" />
<glyph unicode="&#xc7;" horiz-adv-x="1540" d="M61 664v104l4 4v4l20 -4h40l4 -4h4l-4 -20l4 -108l-64 -8zM85 912q16 70 52 132l60 -32l-48 -120zM97 496l64 20q28 -72 52 -112q-4 -11 -52 -36h-12q-52 111 -52 128zM213 1160v8q22 31 92 96q31 -25 44 -48v-4l-84 -88h-8zM233 252l52 44l92 -88v-4l-40 -48h-4 q-31 22 -100 96zM421 1352q106 52 128 52q20 -45 20 -64q-64 -23 -112 -52q-33 35 -36 64zM453 80l32 60l120 -48l-16 -64h-4q-32 0 -132 52zM512 -342q92 -20 145.5 -27.5t92.5 -7.5q64 0 96.5 22.5t32.5 67.5q0 55 -34.5 80t-108.5 25q-19 0 -28.5 -0.5t-18.5 -1.5v184h63 v-111h20q107 0 163.5 -44t56.5 -128t-59 -130t-169 -46q-57 0 -116.5 9t-135.5 30v78zM681 1436q17 8 64 8h112l4 -4h4l-12 -68l-56 4l-104 -4zM721 4l4 40v20l4 4v4l40 -4l88 4l8 -64l-12 -8h-124l-4 4h-4zM977 1348q18 64 28 64q67 -21 124 -56l-28 -56h-4zM981 96l120 52 l28 -60v-4l-128 -52zM1205 216v4l92 92l48 -44q0 -10 -96 -100q-14 8 -44 48zM1205 1224v8q28 39 40 44h4l92 -92v-8l-48 -40z" />
<glyph unicode="&#xc8;" horiz-adv-x="1028" d="M135 8v100l8 8h52l8 -8v-40h100l8 -8v-52l-8 -8h-160zM135 256v120l8 8h52l8 -8v-120l-8 -8h-52zM135 524v120l8 8h52l8 -8v-120l-8 -8h-52zM135 792v120l8 8h52l8 -8v-120l-8 -8h-52zM135 1060v120l8 8h52l8 -8v-120l-8 -8h-52zM135 1328v120l8 8h160l8 -8v-52l-8 -8 h-100v-60l-8 -8h-52zM175 704v52l8 8h120l8 -8v-52l-8 -8h-120zM272 1947h152l209 -350h-92zM443 8v52l8 8h120l8 -8v-52l-8 -8h-120zM443 704v52l8 8h120l8 -8v-52l-8 -8h-120zM443 1396v52l8 8h120l8 -8v-52l-8 -8h-120zM711 8v52l8 8h120l8 -8v-52l-8 -8h-120zM711 704 v52l8 8h120l8 -8v-52l-8 -8h-120zM711 1396v52l8 8h120l8 -8v-52l-8 -8h-120z" />
<glyph unicode="&#xc9;" horiz-adv-x="1028" d="M135 8v100l8 8h52l8 -8v-40h100l8 -8v-52l-8 -8h-160zM135 256v120l8 8h52l8 -8v-120l-8 -8h-52zM135 524v120l8 8h52l8 -8v-120l-8 -8h-52zM135 792v120l8 8h52l8 -8v-120l-8 -8h-52zM135 1060v120l8 8h52l8 -8v-120l-8 -8h-52zM135 1328v120l8 8h160l8 -8v-52l-8 -8 h-100v-60l-8 -8h-52zM175 704v52l8 8h120l8 -8v-52l-8 -8h-120zM383 1597l209 350h152l-269 -350h-92zM443 8v52l8 8h120l8 -8v-52l-8 -8h-120zM443 704v52l8 8h120l8 -8v-52l-8 -8h-120zM443 1396v52l8 8h120l8 -8v-52l-8 -8h-120zM711 8v52l8 8h120l8 -8v-52l-8 -8h-120z M711 704v52l8 8h120l8 -8v-52l-8 -8h-120zM711 1396v52l8 8h120l8 -8v-52l-8 -8h-120z" />
<glyph unicode="&#xca;" horiz-adv-x="1028" d="M135 8v100l8 8h52l8 -8v-40h100l8 -8v-52l-8 -8h-160zM135 256v120l8 8h52l8 -8v-120l-8 -8h-52zM135 524v120l8 8h52l8 -8v-120l-8 -8h-52zM135 792v120l8 8h52l8 -8v-120l-8 -8h-52zM135 1060v120l8 8h52l8 -8v-120l-8 -8h-52zM135 1328v120l8 8h160l8 -8v-52l-8 -8 h-100v-60l-8 -8h-52zM175 704v52l8 8h120l8 -8v-52l-8 -8h-120zM232 1597l200 350h152l200 -350h-92l-184 264l-184 -264h-92zM443 8v52l8 8h120l8 -8v-52l-8 -8h-120zM443 704v52l8 8h120l8 -8v-52l-8 -8h-120zM443 1396v52l8 8h120l8 -8v-52l-8 -8h-120zM711 8v52l8 8h120 l8 -8v-52l-8 -8h-120zM711 704v52l8 8h120l8 -8v-52l-8 -8h-120zM711 1396v52l8 8h120l8 -8v-52l-8 -8h-120z" />
<glyph unicode="&#xcb;" horiz-adv-x="1028" d="M135 8v100l8 8h52l8 -8v-40h100l8 -8v-52l-8 -8h-160zM135 256v120l8 8h52l8 -8v-120l-8 -8h-52zM135 524v120l8 8h52l8 -8v-120l-8 -8h-52zM135 792v120l8 8h52l8 -8v-120l-8 -8h-52zM135 1060v120l8 8h52l8 -8v-120l-8 -8h-52zM135 1328v120l8 8h160l8 -8v-52l-8 -8 h-100v-60l-8 -8h-52zM175 704v52l8 8h120l8 -8v-52l-8 -8h-120zM252 1663v164h141v-164h-141zM443 8v52l8 8h120l8 -8v-52l-8 -8h-120zM443 704v52l8 8h120l8 -8v-52l-8 -8h-120zM443 1396v52l8 8h120l8 -8v-52l-8 -8h-120zM621 1663v164h143v-164h-143zM711 8v52l8 8h120 l8 -8v-52l-8 -8h-120zM711 704v52l8 8h120l8 -8v-52l-8 -8h-120zM711 1396v52l8 8h120l8 -8v-52l-8 -8h-120z" />
<glyph unicode="&#xcc;" horiz-adv-x="412" d="M-29 1947h152l209 -350h-92zM267 8v100l8 8h52l8 -8v-100l-8 -8h-52zM267 256v120l8 8h52l8 -8v-120l-8 -8h-52zM267 524v120l8 8h52l8 -8v-120l-8 -8h-52zM267 792v120l8 8h52l8 -8v-120l-8 -8h-52zM267 1060v120l8 8h52l8 -8v-120l-8 -8h-52zM267 1328v120l8 8h52l8 -8 v-120l-8 -8h-52z" />
<glyph unicode="&#xcd;" horiz-adv-x="412" d="M82 1597l209 350h152l-269 -350h-92zM267 8v100l8 8h52l8 -8v-100l-8 -8h-52zM267 256v120l8 8h52l8 -8v-120l-8 -8h-52zM267 524v120l8 8h52l8 -8v-120l-8 -8h-52zM267 792v120l8 8h52l8 -8v-120l-8 -8h-52zM267 1060v120l8 8h52l8 -8v-120l-8 -8h-52zM267 1328v120l8 8 h52l8 -8v-120l-8 -8h-52z" />
<glyph unicode="&#xce;" horiz-adv-x="412" d="M-69 1597l200 350h152l200 -350h-92l-184 264l-184 -264h-92zM267 8v100l8 8h52l8 -8v-100l-8 -8h-52zM267 256v120l8 8h52l8 -8v-120l-8 -8h-52zM267 524v120l8 8h52l8 -8v-120l-8 -8h-52zM267 792v120l8 8h52l8 -8v-120l-8 -8h-52zM267 1060v120l8 8h52l8 -8v-120 l-8 -8h-52zM267 1328v120l8 8h52l8 -8v-120l-8 -8h-52z" />
<glyph unicode="&#xcf;" horiz-adv-x="412" d="M-49 1663v164h141v-164h-141zM267 8v100l8 8h52l8 -8v-100l-8 -8h-52zM267 256v120l8 8h52l8 -8v-120l-8 -8h-52zM267 524v120l8 8h52l8 -8v-120l-8 -8h-52zM267 792v120l8 8h52l8 -8v-120l-8 -8h-52zM267 1060v120l8 8h52l8 -8v-120l-8 -8h-52zM267 1328v120l8 8h52 l8 -8v-120l-8 -8h-52zM320 1663v164h143v-164h-143z" />
<glyph unicode="&#xd0;" horiz-adv-x="1380" d="M-4 668v127h154v661h438q328 0 529.5 -203t201.5 -530q0 -184 -76 -338.5t-219 -259.5q-91 -68 -194 -96.5t-302 -28.5h-378v668h-154zM291 137h336q245 0 391.5 163t146.5 435q0 268 -151.5 425t-413.5 157h-309v-522h358v-127h-358v-531z" />
<glyph unicode="&#xd1;" horiz-adv-x="1366" d="M131 1v104l8 8h52l8 -8v-104l-8 -8h-52zM131 249v124l8 8h52l8 -8v-124l-8 -8h-52zM131 517v124l8 8h52l8 -8v-124l-8 -8h-52zM131 785v124l8 8h52l8 -8v-124l-8 -8h-52zM131 1053v124l8 8h52l8 -8v-124l-8 -8h-52zM131 1321v120l8 8h52l8 -8v-120l-8 -8h-52zM215 1405 q7 14 56 40q72 -104 72 -116l-56 -36zM355 1640q21 90 71.5 137.5t123.5 47.5q16 0 29 -2.5t24 -6.5l96 -30q13 -5 28 -8t28 -3q33 0 56 17.5t40 56.5h82q-26 -91 -74 -137.5t-117 -46.5q-14 0 -30 2.5t-35 7.5l-97 31q-15 4 -27.5 6t-25.5 2q-30 0 -53.5 -19t-38.5 -55h-80 zM359 1185l56 32l72 -112q-49 -36 -60 -36q-68 102 -68 116zM499 953q40 36 60 36h4l64 -116l-56 -32zM643 725v8l56 32l72 -112q-40 -36 -60 -36zM783 501q48 36 64 36l68 -112q-48 -36 -64 -36zM927 273q40 36 60 36l68 -108v-8l-56 -32zM1071 53q36 11 36 36q0 24 8 24 h52l8 -8v-104q0 -8 -40 -12l-20 -12q-44 60 -44 76zM1107 249v124l8 8h52l8 -8v-124l-8 -8h-52zM1107 517v124l8 8h52l8 -8v-124l-8 -8h-52zM1107 785v124l8 8h52l8 -8v-124l-8 -8h-52zM1107 1053v124l8 8h52l8 -8v-124l-8 -8h-52zM1107 1321v120l8 8h52l8 -8v-120l-8 -8 h-52z" />
<glyph unicode="&#xd2;" horiz-adv-x="1612" d="M61 700v48q0 84 12 84q42 0 64 -12l-8 -124l-4 -4h-56zM85 556l64 12v-4l36 -112v-8l-60 -24q-40 81 -40 136zM105 964v4q0 27 60 124h4l52 -28v-12q-39 -68 -52 -108h-4zM197 304l48 32h8l80 -92v-4l-44 -44q-90 83 -92 108zM253 1204v4q49 59 100 92q40 -40 40 -60 q-11 0 -92 -76h-4q-39 28 -44 40zM401 104q3 29 40 64q4 -13 108 -56v-4l-20 -60h-4q-28 5 -124 56zM477 1372v4q76 32 128 44q8 -9 20 -64l-124 -44zM501 1947h152l209 -350h-92zM661 16l8 60l128 -8l4 -4v-20l4 -40l-4 -4h-44q-96 0 -96 16zM745 1384v48l8 8h60 q87 0 112 -16l-16 -64q-69 12 -128 12h-24zM925 80l120 44q28 -42 28 -68l-132 -40zM1033 1320q15 68 28 68q88 -38 120 -68q-28 -49 -36 -52h-8q-47 33 -104 52zM1157 184l96 80h4q39 -28 44 -40v-4q-52 -57 -104 -92zM1245 1184v4l44 44h4q54 -54 84 -100v-8 q-43 -36 -56 -36q-25 40 -76 96zM1333 372q21 23 56 104l4 4h4l56 -20v-8q-41 -105 -64 -120q-52 27 -56 40zM1385 976l64 28q36 -81 36 -136l-64 -12v4zM1425 604q12 66 12 124l4 4h56l8 -8v-32q0 -70 -12 -104z" />
<glyph unicode="&#xd3;" horiz-adv-x="1612" d="M61 700v48q0 84 12 84q42 0 64 -12l-8 -124l-4 -4h-56zM85 556l64 12v-4l36 -112v-8l-60 -24q-40 81 -40 136zM105 964v4q0 27 60 124h4l52 -28v-12q-39 -68 -52 -108h-4zM197 304l48 32h8l80 -92v-4l-44 -44q-90 83 -92 108zM253 1204v4q49 59 100 92q40 -40 40 -60 q-11 0 -92 -76h-4q-39 28 -44 40zM401 104q3 29 40 64q4 -13 108 -56v-4l-20 -60h-4q-28 5 -124 56zM477 1372v4q76 32 128 44q8 -9 20 -64l-124 -44zM612 1597l209 350h152l-269 -350h-92zM661 16l8 60l128 -8l4 -4v-20l4 -40l-4 -4h-44q-96 0 -96 16zM745 1384v48l8 8h60 q87 0 112 -16l-16 -64q-69 12 -128 12h-24zM925 80l120 44q28 -42 28 -68l-132 -40zM1033 1320q15 68 28 68q88 -38 120 -68q-28 -49 -36 -52h-8q-47 33 -104 52zM1157 184l96 80h4q39 -28 44 -40v-4q-52 -57 -104 -92zM1245 1184v4l44 44h4q54 -54 84 -100v-8 q-43 -36 -56 -36q-25 40 -76 96zM1333 372q21 23 56 104l4 4h4l56 -20v-8q-41 -105 -64 -120q-52 27 -56 40zM1385 976l64 28q36 -81 36 -136l-64 -12v4zM1425 604q12 66 12 124l4 4h56l8 -8v-32q0 -70 -12 -104z" />
<glyph unicode="&#xd4;" horiz-adv-x="1612" d="M61 700v48q0 84 12 84q42 0 64 -12l-8 -124l-4 -4h-56zM85 556l64 12v-4l36 -112v-8l-60 -24q-40 81 -40 136zM105 964v4q0 27 60 124h4l52 -28v-12q-39 -68 -52 -108h-4zM197 304l48 32h8l80 -92v-4l-44 -44q-90 83 -92 108zM253 1204v4q49 59 100 92q40 -40 40 -60 q-11 0 -92 -76h-4q-39 28 -44 40zM401 104q3 29 40 64q4 -13 108 -56v-4l-20 -60h-4q-28 5 -124 56zM461 1597l200 350h152l200 -350h-92l-184 264l-184 -264h-92zM477 1372v4q76 32 128 44q8 -9 20 -64l-124 -44zM661 16l8 60l128 -8l4 -4v-20l4 -40l-4 -4h-44 q-96 0 -96 16zM745 1384v48l8 8h60q87 0 112 -16l-16 -64q-69 12 -128 12h-24zM925 80l120 44q28 -42 28 -68l-132 -40zM1033 1320q15 68 28 68q88 -38 120 -68q-28 -49 -36 -52h-8q-47 33 -104 52zM1157 184l96 80h4q39 -28 44 -40v-4q-52 -57 -104 -92zM1245 1184v4l44 44 h4q54 -54 84 -100v-8q-43 -36 -56 -36q-25 40 -76 96zM1333 372q21 23 56 104l4 4h4l56 -20v-8q-41 -105 -64 -120q-52 27 -56 40zM1385 976l64 28q36 -81 36 -136l-64 -12v4zM1425 604q12 66 12 124l4 4h56l8 -8v-32q0 -70 -12 -104z" />
<glyph unicode="&#xd5;" horiz-adv-x="1612" d="M61 700v48q0 84 12 84q42 0 64 -12l-8 -124l-4 -4h-56zM85 556l64 12v-4l36 -112v-8l-60 -24q-40 81 -40 136zM105 964v4q0 27 60 124h4l52 -28v-12q-39 -68 -52 -108h-4zM197 304l48 32h8l80 -92v-4l-44 -44q-90 83 -92 108zM253 1204v4q49 59 100 92q40 -40 40 -60 q-11 0 -92 -76h-4q-39 28 -44 40zM401 104q3 29 40 64q4 -13 108 -56v-4l-20 -60h-4q-28 5 -124 56zM448 1640q21 90 71.5 137.5t123.5 47.5q16 0 29 -2.5t24 -6.5l96 -30q13 -5 28 -8t28 -3q33 0 56 17.5t40 56.5h82q-26 -91 -74 -137.5t-117 -46.5q-14 0 -30 2.5t-35 7.5 l-97 31q-15 4 -27.5 6t-25.5 2q-30 0 -53.5 -19t-38.5 -55h-80zM477 1372v4q76 32 128 44q8 -9 20 -64l-124 -44zM661 16l8 60l128 -8l4 -4v-20l4 -40l-4 -4h-44q-96 0 -96 16zM745 1384v48l8 8h60q87 0 112 -16l-16 -64q-69 12 -128 12h-24zM925 80l120 44q28 -42 28 -68 l-132 -40zM1033 1320q15 68 28 68q88 -38 120 -68q-28 -49 -36 -52h-8q-47 33 -104 52zM1157 184l96 80h4q39 -28 44 -40v-4q-52 -57 -104 -92zM1245 1184v4l44 44h4q54 -54 84 -100v-8q-43 -36 -56 -36q-25 40 -76 96zM1333 372q21 23 56 104l4 4h4l56 -20v-8 q-41 -105 -64 -120q-52 27 -56 40zM1385 976l64 28q36 -81 36 -136l-64 -12v4zM1425 604q12 66 12 124l4 4h56l8 -8v-32q0 -70 -12 -104z" />
<glyph unicode="&#xd6;" horiz-adv-x="1612" d="M61 700v48q0 84 12 84q42 0 64 -12l-8 -124l-4 -4h-56zM85 556l64 12v-4l36 -112v-8l-60 -24q-40 81 -40 136zM105 964v4q0 27 60 124h4l52 -28v-12q-39 -68 -52 -108h-4zM197 304l48 32h8l80 -92v-4l-44 -44q-90 83 -92 108zM253 1204v4q49 59 100 92q40 -40 40 -60 q-11 0 -92 -76h-4q-39 28 -44 40zM401 104q3 29 40 64q4 -13 108 -56v-4l-20 -60h-4q-28 5 -124 56zM477 1372v4q76 32 128 44q8 -9 20 -64l-124 -44zM481 1663v164h141v-164h-141zM661 16l8 60l128 -8l4 -4v-20l4 -40l-4 -4h-44q-96 0 -96 16zM745 1384v48l8 8h60 q87 0 112 -16l-16 -64q-69 12 -128 12h-24zM850 1663v164h143v-164h-143zM925 80l120 44q28 -42 28 -68l-132 -40zM1033 1320q15 68 28 68q88 -38 120 -68q-28 -49 -36 -52h-8q-47 33 -104 52zM1157 184l96 80h4q39 -28 44 -40v-4q-52 -57 -104 -92zM1245 1184v4l44 44h4 q54 -54 84 -100v-8q-43 -36 -56 -36q-25 40 -76 96zM1333 372q21 23 56 104l4 4h4l56 -20v-8q-41 -105 -64 -120q-52 27 -56 40zM1385 976l64 28q36 -81 36 -136l-64 -12v4zM1425 604q12 66 12 124l4 4h56l8 -8v-32q0 -70 -12 -104z" />
<glyph unicode="&#xd7;" horiz-adv-x="1706" d="M305 129l481 481l-481 482l70 69l481 -481l481 481l70 -69l-481 -482l481 -481l-70 -70l-481 482l-481 -482z" />
<glyph unicode="&#xd8;" horiz-adv-x="1612" d="M63 739q0 153 58 289t170 246q107 105 237.5 158t284.5 53q122 0 226.5 -34.5t201.5 -107.5l172 207l96 -75l-178 -213q108 -104 162.5 -235.5t54.5 -289.5q0 -327 -214 -545.5t-531 -218.5q-123 0 -222.5 33t-203.5 107l-207 -250l-94 78l207 247q-110 119 -165 257 t-55 294zM215 735q0 -126 42 -238.5t120 -193.5l770 928q-81 60 -159 87.5t-171 27.5q-254 0 -428 -179.5t-174 -431.5zM469 223q85 -58 166 -85t168 -27q253 0 425.5 181t172.5 443q0 119 -41 221t-123 191z" />
<glyph unicode="&#xd9;" d="M113 345v59l8 8h52l8 -8v-20q0 -49 12 -94l-64 -20q-16 32 -16 75zM113 549v117l8 8h52l8 -8v-117l-8 -8h-52zM113 811v118l8 8h52l8 -8v-118l-8 -8h-52zM113 1074v117l8 8h52l8 -8v-117l-8 -8h-52zM113 1336v110l8 8h52l8 -8v-110l-8 -7h-52zM201 141v4l48 43 q79 -70 92 -70v-4q-3 -27 -32 -59h-4q-42 14 -104 86zM277 1947h152l209 -350h-92zM445 8q8 63 16 63l64 -4l56 4l12 -63l-24 -8h-80q-28 0 -44 8zM697 102v4l96 74q23 -13 48 -43q-83 -86 -116 -86zM853 282l12 102v12l8 8h52l8 -8v-51q-7 -79 -20 -82zM865 541v117l8 8h52 l8 -8v-117l-8 -8h-52zM865 803v118l8 8h52l8 -8v-118l-8 -7h-52zM865 1066v118l8 7h52l8 -7v-118l-8 -8h-52zM865 1329v117l8 8h52l8 -8v-117l-8 -8h-52z" />
<glyph unicode="&#xda;" d="M113 345v59l8 8h52l8 -8v-20q0 -49 12 -94l-64 -20q-16 32 -16 75zM113 549v117l8 8h52l8 -8v-117l-8 -8h-52zM113 811v118l8 8h52l8 -8v-118l-8 -8h-52zM113 1074v117l8 8h52l8 -8v-117l-8 -8h-52zM113 1336v110l8 8h52l8 -8v-110l-8 -7h-52zM201 141v4l48 43 q79 -70 92 -70v-4q-3 -27 -32 -59h-4q-42 14 -104 86zM388 1597l209 350h152l-269 -350h-92zM445 8q8 63 16 63l64 -4l56 4l12 -63l-24 -8h-80q-28 0 -44 8zM697 102v4l96 74q23 -13 48 -43q-83 -86 -116 -86zM853 282l12 102v12l8 8h52l8 -8v-51q-7 -79 -20 -82zM865 541 v117l8 8h52l8 -8v-117l-8 -8h-52zM865 803v118l8 8h52l8 -8v-118l-8 -7h-52zM865 1066v118l8 7h52l8 -7v-118l-8 -8h-52zM865 1329v117l8 8h52l8 -8v-117l-8 -8h-52z" />
<glyph unicode="&#xdb;" d="M113 345v59l8 8h52l8 -8v-20q0 -49 12 -94l-64 -20q-16 32 -16 75zM113 549v117l8 8h52l8 -8v-117l-8 -8h-52zM113 811v118l8 8h52l8 -8v-118l-8 -8h-52zM113 1074v117l8 8h52l8 -8v-117l-8 -8h-52zM113 1336v110l8 8h52l8 -8v-110l-8 -7h-52zM201 141v4l48 43 q79 -70 92 -70v-4q-3 -27 -32 -59h-4q-42 14 -104 86zM237 1597l200 350h152l200 -350h-92l-184 264l-184 -264h-92zM445 8q8 63 16 63l64 -4l56 4l12 -63l-24 -8h-80q-28 0 -44 8zM697 102v4l96 74q23 -13 48 -43q-83 -86 -116 -86zM853 282l12 102v12l8 8h52l8 -8v-51 q-7 -79 -20 -82zM865 541v117l8 8h52l8 -8v-117l-8 -8h-52zM865 803v118l8 8h52l8 -8v-118l-8 -7h-52zM865 1066v118l8 7h52l8 -7v-118l-8 -8h-52zM865 1329v117l8 8h52l8 -8v-117l-8 -8h-52z" />
<glyph unicode="&#xdc;" d="M113 345v59l8 8h52l8 -8v-20q0 -49 12 -94l-64 -20q-16 32 -16 75zM113 549v117l8 8h52l8 -8v-117l-8 -8h-52zM113 811v118l8 8h52l8 -8v-118l-8 -8h-52zM113 1074v117l8 8h52l8 -8v-117l-8 -8h-52zM113 1336v110l8 8h52l8 -8v-110l-8 -7h-52zM201 141v4l48 43 q79 -70 92 -70v-4q-3 -27 -32 -59h-4q-42 14 -104 86zM257 1663v164h141v-164h-141zM445 8q8 63 16 63l64 -4l56 4l12 -63l-24 -8h-80q-28 0 -44 8zM626 1663v164h143v-164h-143zM697 102v4l96 74q23 -13 48 -43q-83 -86 -116 -86zM853 282l12 102v12l8 8h52l8 -8v-51 q-7 -79 -20 -82zM865 541v117l8 8h52l8 -8v-117l-8 -8h-52zM865 803v118l8 8h52l8 -8v-118l-8 -7h-52zM865 1066v118l8 7h52l8 -7v-118l-8 -8h-52zM865 1329v117l8 8h52l8 -8v-117l-8 -8h-52z" />
<glyph unicode="&#xdd;" horiz-adv-x="981" d="M-49 1436l60 28l60 -120l-60 -32q-39 68 -60 124zM71 1196l60 28l60 -120q-49 -28 -64 -28q-56 108 -56 120zM187 956q52 28 64 28q56 -108 56 -120v-4l-60 -24h-4zM194 1597l209 350h152l-269 -350h-92zM307 716l60 28l24 -48h4q17 48 28 48q56 -25 56 -32 q-52 -100 -52 -112v-112l-8 -8h-56l-8 8v120zM355 8v68l8 8h56l8 -8v-68l-8 -8h-56zM355 220v124l8 8h56l8 -8v-124l-8 -8h-56zM475 864q56 120 68 120q56 -25 56 -32l-56 -116h-4q-12 0 -64 28zM595 1104q56 117 64 120q56 -24 56 -36q-52 -112 -64 -112zM715 1348 q55 116 64 116q56 -25 56 -32l-60 -120q-60 27 -60 36z" />
<glyph unicode="&#xde;" horiz-adv-x="1034" d="M119 0v1456h143v-282h193q124 0 194 -12.5t119 -41.5q94 -56 149.5 -152t55.5 -206q0 -198 -139 -315t-381 -117h-191v-330h-143zM262 477h211q170 0 256 70t86 209q0 70 -28 129.5t-78 95.5q-37 26 -85 37.5t-163 11.5h-199v-553z" />
<glyph unicode="&#xdf;" horiz-adv-x="1200" d="M115 0v965q0 257 101.5 381t311.5 124q186 0 303 -112.5t117 -288.5q0 -101 -39.5 -170t-109.5 -90q163 -38 251.5 -140.5t88.5 -254.5q0 -189 -130 -316t-325 -127q-158 0 -262.5 77.5t-165.5 240.5v-289h-141zM256 358h139q40 -128 113 -192t180 -64q122 0 211.5 85.5 t89.5 201.5q0 147 -100 222t-295 75h-90v115h6q134 0 211.5 72t77.5 196q0 117 -77.5 191.5t-197.5 74.5q-124 0 -196 -75.5t-72 -206.5v-695z" />
<glyph unicode="&#xe0;" horiz-adv-x="1290" d="M57 576q0 53 20 132h4q64 -12 64 -20l-24 -124l-4 4h-52zM69 428l64 16l44 -120q-48 -28 -60 -28q-48 102 -48 132zM141 840q30 52 92 108q31 -25 44 -48v-4l-80 -92h-4zM201 180l48 44h4l92 -84q-27 -48 -36 -52q-50 28 -108 92zM349 1028q92 48 132 48h8l12 -64 q-80 -24 -120 -44zM350 1597h152l209 -350h-92zM441 36q15 60 24 60q13 -8 120 -24v-60l-4 -4v-4q-140 13 -140 32zM593 1024v56l8 8h20q77 0 116 -20q-9 -64 -20 -64zM705 88l124 44l28 -60q-57 -31 -132 -52zM837 952v12l32 52q56 -29 112 -88l-48 -48q-51 49 -96 72z M925 204v4l80 96q49 -27 56 -40q-49 -70 -88 -104h-4zM1009 780q45 32 60 32h4q11 -36 20 -36h36l8 -8v-144l-8 -8h-52l-8 8v44h-4l-4 -4h-4zM1053 420q17 124 24 124h52l8 -8v-40l-4 -16l4 -28v-136l-8 -8h-52l-8 8v96q-16 0 -16 8zM1069 8v140l8 8h52l8 -8v-140l-8 -8h-52 zM1069 936v140l8 8h52l8 -8v-140l-8 -8h-52z" />
<glyph unicode="&#xe1;" horiz-adv-x="1290" d="M57 576q0 53 20 132h4q64 -12 64 -20l-24 -124l-4 4h-52zM69 428l64 16l44 -120q-48 -28 -60 -28q-48 102 -48 132zM141 840q30 52 92 108q31 -25 44 -48v-4l-80 -92h-4zM201 180l48 44h4l92 -84q-27 -48 -36 -52q-50 28 -108 92zM349 1028q92 48 132 48h8l12 -64 q-80 -24 -120 -44zM441 36q15 60 24 60q13 -8 120 -24v-60l-4 -4v-4q-140 13 -140 32zM461 1247l209 350h152l-269 -350h-92zM593 1024v56l8 8h20q77 0 116 -20q-9 -64 -20 -64zM705 88l124 44l28 -60q-57 -31 -132 -52zM837 952v12l32 52q56 -29 112 -88l-48 -48 q-51 49 -96 72zM925 204v4l80 96q49 -27 56 -40q-49 -70 -88 -104h-4zM1009 780q45 32 60 32h4q11 -36 20 -36h36l8 -8v-144l-8 -8h-52l-8 8v44h-4l-4 -4h-4zM1053 420q17 124 24 124h52l8 -8v-40l-4 -16l4 -28v-136l-8 -8h-52l-8 8v96q-16 0 -16 8zM1069 8v140l8 8h52l8 -8 v-140l-8 -8h-52zM1069 936v140l8 8h52l8 -8v-140l-8 -8h-52z" />
<glyph unicode="&#xe2;" horiz-adv-x="1290" d="M57 576q0 53 20 132h4q64 -12 64 -20l-24 -124l-4 4h-52zM69 428l64 16l44 -120q-48 -28 -60 -28q-48 102 -48 132zM141 840q30 52 92 108q31 -25 44 -48v-4l-80 -92h-4zM201 180l48 44h4l92 -84q-27 -48 -36 -52q-50 28 -108 92zM310 1247l200 350h152l200 -350h-92 l-184 264l-184 -264h-92zM349 1028q92 48 132 48h8l12 -64q-80 -24 -120 -44zM441 36q15 60 24 60q13 -8 120 -24v-60l-4 -4v-4q-140 13 -140 32zM593 1024v56l8 8h20q77 0 116 -20q-9 -64 -20 -64zM705 88l124 44l28 -60q-57 -31 -132 -52zM837 952v12l32 52 q56 -29 112 -88l-48 -48q-51 49 -96 72zM925 204v4l80 96q49 -27 56 -40q-49 -70 -88 -104h-4zM1009 780q45 32 60 32h4q11 -36 20 -36h36l8 -8v-144l-8 -8h-52l-8 8v44h-4l-4 -4h-4zM1053 420q17 124 24 124h52l8 -8v-40l-4 -16l4 -28v-136l-8 -8h-52l-8 8v96q-16 0 -16 8z M1069 8v140l8 8h52l8 -8v-140l-8 -8h-52zM1069 936v140l8 8h52l8 -8v-140l-8 -8h-52z" />
<glyph unicode="&#xe3;" horiz-adv-x="1290" d="M57 576q0 53 20 132h4q64 -12 64 -20l-24 -124l-4 4h-52zM69 428l64 16l44 -120q-48 -28 -60 -28q-48 102 -48 132zM141 840q30 52 92 108q31 -25 44 -48v-4l-80 -92h-4zM201 180l48 44h4l92 -84q-27 -48 -36 -52q-50 28 -108 92zM297 1290q21 90 71.5 137.5t123.5 47.5 q16 0 29 -2.5t24 -6.5l96 -30q13 -5 28 -8t28 -3q33 0 56 17.5t40 56.5h82q-26 -91 -74 -137.5t-117 -46.5q-14 0 -30 2.5t-35 7.5l-97 31q-15 4 -27.5 6t-25.5 2q-30 0 -53.5 -19t-38.5 -55h-80zM349 1028q92 48 132 48h8l12 -64q-80 -24 -120 -44zM441 36q15 60 24 60 q13 -8 120 -24v-60l-4 -4v-4q-140 13 -140 32zM593 1024v56l8 8h20q77 0 116 -20q-9 -64 -20 -64zM705 88l124 44l28 -60q-57 -31 -132 -52zM837 952v12l32 52q56 -29 112 -88l-48 -48q-51 49 -96 72zM925 204v4l80 96q49 -27 56 -40q-49 -70 -88 -104h-4zM1009 780 q45 32 60 32h4q11 -36 20 -36h36l8 -8v-144l-8 -8h-52l-8 8v44h-4l-4 -4h-4zM1053 420q17 124 24 124h52l8 -8v-40l-4 -16l4 -28v-136l-8 -8h-52l-8 8v96q-16 0 -16 8zM1069 8v140l8 8h52l8 -8v-140l-8 -8h-52zM1069 936v140l8 8h52l8 -8v-140l-8 -8h-52z" />
<glyph unicode="&#xe4;" horiz-adv-x="1290" d="M57 576q0 53 20 132h4q64 -12 64 -20l-24 -124l-4 4h-52zM69 428l64 16l44 -120q-48 -28 -60 -28q-48 102 -48 132zM141 840q30 52 92 108q31 -25 44 -48v-4l-80 -92h-4zM201 180l48 44h4l92 -84q-27 -48 -36 -52q-50 28 -108 92zM330 1313v164h141v-164h-141zM349 1028 q92 48 132 48h8l12 -64q-80 -24 -120 -44zM441 36q15 60 24 60q13 -8 120 -24v-60l-4 -4v-4q-140 13 -140 32zM593 1024v56l8 8h20q77 0 116 -20q-9 -64 -20 -64zM699 1313v164h143v-164h-143zM705 88l124 44l28 -60q-57 -31 -132 -52zM837 952v12l32 52q56 -29 112 -88 l-48 -48q-51 49 -96 72zM925 204v4l80 96q49 -27 56 -40q-49 -70 -88 -104h-4zM1009 780q45 32 60 32h4q11 -36 20 -36h36l8 -8v-144l-8 -8h-52l-8 8v44h-4l-4 -4h-4zM1053 420q17 124 24 124h52l8 -8v-40l-4 -16l4 -28v-136l-8 -8h-52l-8 8v96q-16 0 -16 8zM1069 8v140l8 8 h52l8 -8v-140l-8 -8h-52zM1069 936v140l8 8h52l8 -8v-140l-8 -8h-52z" />
<glyph unicode="&#xe5;" horiz-adv-x="1290" d="M57 545q0 247 164.5 413t411.5 166q127 0 233 -51.5t176 -148.5v176h138v-1100h-138v174q-66 -95 -178.5 -149t-242.5 -54q-242 0 -403 165.5t-161 408.5zM203 539q0 -184 124 -310.5t298 -126.5q168 0 292.5 133.5t124.5 321.5q0 175 -125 305.5t-288 130.5 q-177 0 -301.5 -130.5t-124.5 -323.5zM416 1411q0 95 67 162t162 67q96 0 164 -67t68 -162t-68 -162t-164 -67t-162.5 66.5t-66.5 162.5zM506 1413q0 -59 41.5 -101t99.5 -42q59 0 101.5 42t42.5 101q0 58 -42.5 100.5t-101.5 42.5q-58 0 -99.5 -41.5t-41.5 -101.5z" />
<glyph unicode="&#xe6;" horiz-adv-x="2228" d="M57 545q0 247 164.5 413t411.5 166q114 0 212.5 -44t192.5 -138v158h142v-162q91 95 198.5 140.5t237.5 45.5q245 0 402 -169.5t157 -438.5v-14h-987q13 -177 131 -288.5t289 -111.5q123 0 221.5 63.5t152.5 178.5h158q-75 -181 -211.5 -278t-316.5 -97q-136 0 -241.5 45 t-190.5 140v-154h-142v154q-88 -95 -189.5 -140t-227.5 -45q-242 0 -403 166.5t-161 409.5zM203 539q0 -184 124 -310.5t298 -126.5q168 0 292.5 133.5t124.5 321.5q0 176 -125.5 308t-287.5 132q-176 0 -301 -132.5t-125 -325.5zM1192 625h831q-36 177 -144.5 274.5 t-268.5 97.5q-164 0 -276 -99.5t-142 -272.5z" />
<glyph unicode="&#xe7;" horiz-adv-x="1241" d="M57 488v96q0 28 8 44l64 -12l-4 -92l4 -32l-68 -8zM93 344q12 11 60 24q60 -102 60 -112l-52 -36q-68 99 -68 124zM105 768q19 48 76 116l52 -44l-68 -104q-60 20 -60 32zM261 112q0 23 44 60q40 -33 104 -68q-24 -60 -32 -60zM285 976v4q31 31 124 68q24 -46 24 -68 q-22 0 -104 -52h-12zM327 -342q92 -20 145.5 -27.5t92.5 -7.5q64 0 96.5 22.5t32.5 67.5q0 55 -34.5 80t-108.5 25q-19 0 -28.5 -0.5t-18.5 -1.5v184h63v-111h20q107 0 163.5 -44t56.5 -128t-59 -130t-169 -46q-57 0 -116.5 9t-135.5 30v78zM517 12q5 60 16 60l80 -4l36 4 q8 -8 12 -68l-4 -4h-116q-21 0 -24 12zM517 1072l32 8h104l8 -8l-8 -64l-52 4l-72 -4zM773 100q76 39 108 64l40 -52v-4q-79 -63 -128 -68zM773 980v4q17 48 28 56q42 -8 120 -68v-4l-40 -52q-40 29 -108 64zM973 248v8l28 32h64l4 -4h4q-30 -59 -52 -76zM973 824v8l44 36h8 q46 -54 60 -96l-4 -4h-68z" />
<glyph unicode="&#xe8;" horiz-adv-x="1241" d="M53 532v32q4 104 20 104l60 -16l-12 -124l-4 -4h-56zM73 384l68 20q19 -57 52 -112q-48 -36 -64 -36q-32 60 -56 128zM117 804q47 74 88 108q11 0 48 -44l-76 -100q-60 27 -60 36zM161 516v52l8 8h120l8 -8v-52l-8 -8h-120zM225 144v4l44 44h4l100 -72l-28 -56 q-30 0 -120 80zM317 1008q81 42 128 52q11 -12 20 -64l-116 -48h-4zM353 1597h152l209 -350h-92zM429 516v52l8 8h120l8 -8v-52l-8 -8h-120zM473 20l16 60q61 -12 124 -12l4 -4v-56l-8 -8h-40q-91 0 -96 20zM585 1016v56l8 8h28q107 -5 108 -20l-16 -64zM697 516v52l8 8h120 l8 -8v-52l-8 -8h-120zM737 88v4q24 0 108 48h4q36 -40 36 -60q-80 -43 -128 -56q-20 44 -20 64zM829 952v4l28 52h12q63 -37 104 -84v-4l-44 -44zM945 224l76 100l56 -32q-38 -72 -84 -116zM965 516v52l8 8h120l8 -8v-52l-8 -8h-120zM1005 772v4q24 24 60 36 q52 -102 52 -132l-64 -16h-4q-23 82 -44 108z" />
<glyph unicode="&#xe9;" horiz-adv-x="1241" d="M53 532v32q4 104 20 104l60 -16l-12 -124l-4 -4h-56zM73 384l68 20q19 -57 52 -112q-48 -36 -64 -36q-32 60 -56 128zM117 804q47 74 88 108q11 0 48 -44l-76 -100q-60 27 -60 36zM161 516v52l8 8h120l8 -8v-52l-8 -8h-120zM225 144v4l44 44h4l100 -72l-28 -56 q-30 0 -120 80zM317 1008q81 42 128 52q11 -12 20 -64l-116 -48h-4zM429 516v52l8 8h120l8 -8v-52l-8 -8h-120zM464 1247l209 350h152l-269 -350h-92zM473 20l16 60q61 -12 124 -12l4 -4v-56l-8 -8h-40q-91 0 -96 20zM585 1016v56l8 8h28q107 -5 108 -20l-16 -64zM697 516 v52l8 8h120l8 -8v-52l-8 -8h-120zM737 88v4q24 0 108 48h4q36 -40 36 -60q-80 -43 -128 -56q-20 44 -20 64zM829 952v4l28 52h12q63 -37 104 -84v-4l-44 -44zM945 224l76 100l56 -32q-38 -72 -84 -116zM965 516v52l8 8h120l8 -8v-52l-8 -8h-120zM1005 772v4q24 24 60 36 q52 -102 52 -132l-64 -16h-4q-23 82 -44 108z" />
<glyph unicode="&#xea;" horiz-adv-x="1241" d="M53 532v32q4 104 20 104l60 -16l-12 -124l-4 -4h-56zM73 384l68 20q19 -57 52 -112q-48 -36 -64 -36q-32 60 -56 128zM117 804q47 74 88 108q11 0 48 -44l-76 -100q-60 27 -60 36zM161 516v52l8 8h120l8 -8v-52l-8 -8h-120zM225 144v4l44 44h4l100 -72l-28 -56 q-30 0 -120 80zM313 1247l200 350h152l200 -350h-92l-184 264l-184 -264h-92zM317 1008q81 42 128 52q11 -12 20 -64l-116 -48h-4zM429 516v52l8 8h120l8 -8v-52l-8 -8h-120zM473 20l16 60q61 -12 124 -12l4 -4v-56l-8 -8h-40q-91 0 -96 20zM585 1016v56l8 8h28 q107 -5 108 -20l-16 -64zM697 516v52l8 8h120l8 -8v-52l-8 -8h-120zM737 88v4q24 0 108 48h4q36 -40 36 -60q-80 -43 -128 -56q-20 44 -20 64zM829 952v4l28 52h12q63 -37 104 -84v-4l-44 -44zM945 224l76 100l56 -32q-38 -72 -84 -116zM965 516v52l8 8h120l8 -8v-52l-8 -8 h-120zM1005 772v4q24 24 60 36q52 -102 52 -132l-64 -16h-4q-23 82 -44 108z" />
<glyph unicode="&#xeb;" horiz-adv-x="1241" d="M53 532v32q4 104 20 104l60 -16l-12 -124l-4 -4h-56zM73 384l68 20q19 -57 52 -112q-48 -36 -64 -36q-32 60 -56 128zM117 804q47 74 88 108q11 0 48 -44l-76 -100q-60 27 -60 36zM161 516v52l8 8h120l8 -8v-52l-8 -8h-120zM225 144v4l44 44h4l100 -72l-28 -56 q-30 0 -120 80zM317 1008q81 42 128 52q11 -12 20 -64l-116 -48h-4zM333 1313v164h141v-164h-141zM429 516v52l8 8h120l8 -8v-52l-8 -8h-120zM473 20l16 60q61 -12 124 -12l4 -4v-56l-8 -8h-40q-91 0 -96 20zM585 1016v56l8 8h28q107 -5 108 -20l-16 -64zM697 516v52l8 8 h120l8 -8v-52l-8 -8h-120zM702 1313v164h143v-164h-143zM737 88v4q24 0 108 48h4q36 -40 36 -60q-80 -43 -128 -56q-20 44 -20 64zM829 952v4l28 52h12q63 -37 104 -84v-4l-44 -44zM945 224l76 100l56 -32q-38 -72 -84 -116zM965 516v52l8 8h120l8 -8v-52l-8 -8h-120z M1005 772v4q24 24 60 36q52 -102 52 -132l-64 -16h-4q-23 82 -44 108z" />
<glyph unicode="&#xec;" horiz-adv-x="371" d="M-50 1597h152l209 -350h-92zM115 0v1100h141v-1100h-141z" />
<glyph unicode="&#xed;" horiz-adv-x="371" d="M61 1247l209 350h152l-269 -350h-92zM115 0v1100h141v-1100h-141z" />
<glyph unicode="&#xee;" horiz-adv-x="371" d="M-90 1247l200 350h152l200 -350h-92l-184 264l-184 -264h-92zM115 0v1100h141v-1100h-141z" />
<glyph unicode="&#xef;" horiz-adv-x="371" d="M-70 1313v164h141v-164h-141zM115 0v1100h141v-1100h-141zM299 1313v164h143v-164h-143z" />
<glyph unicode="&#xf0;" horiz-adv-x="1241" d="M53 510q0 222 166 382.5t393 160.5q100 0 188 -32.5t183 -105.5q-34 92 -91 169.5t-136 138.5l-269 -99l-36 82l223 84q-34 21 -74 42.5t-86 43.5l43 92q77 -34 136 -65.5t110 -65.5l287 103l34 -80l-237 -88q146 -136 223.5 -310.5t77.5 -369.5q0 -279 -158 -450 t-409 -171q-238 0 -403 159t-165 380zM203 518q0 -177 120 -295.5t300 -118.5q179 0 298 121t119 305q0 173 -122 289.5t-306 116.5q-167 0 -288 -121.5t-121 -296.5z" />
<glyph unicode="&#xf1;" horiz-adv-x="1143" d="M113 8v140l8 8h52l8 -8v-140l-8 -8h-52zM113 316v144l8 8h52l8 -8v-144l-8 -8h-52zM113 624v144l8 8h52l8 -8v-144l-8 -8h-52zM113 932v144l8 8h52l8 -8v-144l-8 -8h-52zM165 792q52 116 60 116l52 -28l-44 -112q-22 0 -68 24zM233 1290q21 90 71.5 137.5t123.5 47.5 q16 0 29 -2.5t24 -6.5l96 -30q13 -5 28 -8t28 -3q33 0 56 17.5t40 56.5h82q-26 -91 -74 -137.5t-117 -46.5q-14 0 -30 2.5t-35 7.5l-97 31q-15 4 -27.5 6t-25.5 2q-30 0 -53.5 -19t-38.5 -55h-80zM313 1020q62 55 132 68l16 -68q-56 -21 -104 -52zM581 1032v4q0 60 12 60 q52 -12 136 -48l-36 -56q-40 20 -112 40zM785 912l48 40h12q48 -76 60 -128q-34 -16 -72 -16v4q0 22 -48 100zM845 20v120l8 8h52l8 -8v-120l-8 -8h-52zM845 288v120l8 8h52l8 -8v-120l-8 -8h-52zM845 552v124l8 8h52l8 -8v-124l-8 -8h-52z" />
<glyph unicode="&#xf2;" horiz-adv-x="1241" d="M53 572v4q0 44 20 128q22 0 68 -20l-24 -124h-40q-21 0 -24 12zM65 420q43 16 68 16v-4q20 -70 44 -112l-64 -32q-48 102 -48 132zM137 836q29 50 92 108q15 -7 44 -48v-4l-80 -92h-4zM197 172l48 44h4q60 -58 92 -72v-12l-32 -48h-8q-51 30 -104 88zM342 1597h152 l209 -350h-92zM345 1024q43 28 136 52l16 -68l-120 -44zM437 28l20 60l124 -24v-56l-8 -8h-8q-128 8 -128 28zM589 1020v56l8 8h28q67 0 108 -20q-9 -64 -20 -64zM705 80v4q20 0 116 40h4l28 -60q-61 -32 -132 -52q-16 33 -16 68zM833 952v4l32 56q38 -17 112 -88l-48 -48z M921 200q72 79 72 96q21 0 64 -36q-27 -49 -88 -108h-4q-43 38 -44 48zM1005 776q47 32 60 32q52 -100 52 -128q-7 -8 -68 -20q-9 44 -44 116zM1045 412q12 36 24 124h56l8 -8v-12q0 -44 -16 -120h-8z" />
<glyph unicode="&#xf3;" horiz-adv-x="1241" d="M53 572v4q0 44 20 128q22 0 68 -20l-24 -124h-40q-21 0 -24 12zM65 420q43 16 68 16v-4q20 -70 44 -112l-64 -32q-48 102 -48 132zM137 836q29 50 92 108q15 -7 44 -48v-4l-80 -92h-4zM197 172l48 44h4q60 -58 92 -72v-12l-32 -48h-8q-51 30 -104 88zM345 1024 q43 28 136 52l16 -68l-120 -44zM437 28l20 60l124 -24v-56l-8 -8h-8q-128 8 -128 28zM453 1247l209 350h152l-269 -350h-92zM589 1020v56l8 8h28q67 0 108 -20q-9 -64 -20 -64zM705 80v4q20 0 116 40h4l28 -60q-61 -32 -132 -52q-16 33 -16 68zM833 952v4l32 56 q38 -17 112 -88l-48 -48zM921 200q72 79 72 96q21 0 64 -36q-27 -49 -88 -108h-4q-43 38 -44 48zM1005 776q47 32 60 32q52 -100 52 -128q-7 -8 -68 -20q-9 44 -44 116zM1045 412q12 36 24 124h56l8 -8v-12q0 -44 -16 -120h-8z" />
<glyph unicode="&#xf4;" horiz-adv-x="1241" d="M53 572v4q0 44 20 128q22 0 68 -20l-24 -124h-40q-21 0 -24 12zM65 420q43 16 68 16v-4q20 -70 44 -112l-64 -32q-48 102 -48 132zM137 836q29 50 92 108q15 -7 44 -48v-4l-80 -92h-4zM197 172l48 44h4q60 -58 92 -72v-12l-32 -48h-8q-51 30 -104 88zM302 1247l200 350 h152l200 -350h-92l-184 264l-184 -264h-92zM345 1024q43 28 136 52l16 -68l-120 -44zM437 28l20 60l124 -24v-56l-8 -8h-8q-128 8 -128 28zM589 1020v56l8 8h28q67 0 108 -20q-9 -64 -20 -64zM705 80v4q20 0 116 40h4l28 -60q-61 -32 -132 -52q-16 33 -16 68zM833 952v4 l32 56q38 -17 112 -88l-48 -48zM921 200q72 79 72 96q21 0 64 -36q-27 -49 -88 -108h-4q-43 38 -44 48zM1005 776q47 32 60 32q52 -100 52 -128q-7 -8 -68 -20q-9 44 -44 116zM1045 412q12 36 24 124h56l8 -8v-12q0 -44 -16 -120h-8z" />
<glyph unicode="&#xf5;" horiz-adv-x="1241" d="M53 572v4q0 44 20 128q22 0 68 -20l-24 -124h-40q-21 0 -24 12zM65 420q43 16 68 16v-4q20 -70 44 -112l-64 -32q-48 102 -48 132zM137 836q29 50 92 108q15 -7 44 -48v-4l-80 -92h-4zM197 172l48 44h4q60 -58 92 -72v-12l-32 -48h-8q-51 30 -104 88zM289 1290 q21 90 71.5 137.5t123.5 47.5q16 0 29 -2.5t24 -6.5l96 -30q13 -5 28 -8t28 -3q33 0 56 17.5t40 56.5h82q-26 -91 -74 -137.5t-117 -46.5q-14 0 -30 2.5t-35 7.5l-97 31q-15 4 -27.5 6t-25.5 2q-30 0 -53.5 -19t-38.5 -55h-80zM345 1024q43 28 136 52l16 -68l-120 -44z M437 28l20 60l124 -24v-56l-8 -8h-8q-128 8 -128 28zM589 1020v56l8 8h28q67 0 108 -20q-9 -64 -20 -64zM705 80v4q20 0 116 40h4l28 -60q-61 -32 -132 -52q-16 33 -16 68zM833 952v4l32 56q38 -17 112 -88l-48 -48zM921 200q72 79 72 96q21 0 64 -36q-27 -49 -88 -108h-4 q-43 38 -44 48zM1005 776q47 32 60 32q52 -100 52 -128q-7 -8 -68 -20q-9 44 -44 116zM1045 412q12 36 24 124h56l8 -8v-12q0 -44 -16 -120h-8z" />
<glyph unicode="&#xf6;" horiz-adv-x="1241" d="M53 572v4q0 44 20 128q22 0 68 -20l-24 -124h-40q-21 0 -24 12zM65 420q43 16 68 16v-4q20 -70 44 -112l-64 -32q-48 102 -48 132zM137 836q29 50 92 108q15 -7 44 -48v-4l-80 -92h-4zM197 172l48 44h4q60 -58 92 -72v-12l-32 -48h-8q-51 30 -104 88zM322 1313v164h141 v-164h-141zM345 1024q43 28 136 52l16 -68l-120 -44zM437 28l20 60l124 -24v-56l-8 -8h-8q-128 8 -128 28zM589 1020v56l8 8h28q67 0 108 -20q-9 -64 -20 -64zM691 1313v164h143v-164h-143zM705 80v4q20 0 116 40h4l28 -60q-61 -32 -132 -52q-16 33 -16 68zM833 952v4l32 56 q38 -17 112 -88l-48 -48zM921 200q72 79 72 96q21 0 64 -36q-27 -49 -88 -108h-4q-43 38 -44 48zM1005 776q47 32 60 32q52 -100 52 -128q-7 -8 -68 -20q-9 44 -44 116zM1045 412q12 36 24 124h56l8 -8v-12q0 -44 -16 -120h-8z" />
<glyph unicode="&#xf7;" horiz-adv-x="1706" d="M254 561v98h1198v-98h-1198zM748 258q0 44 31 75.5t75 31.5q45 0 76 -31t31 -76q0 -44 -31 -75t-76 -31t-75.5 31t-30.5 75zM748 963q0 44 31.5 76t74.5 32q44 0 75.5 -32t31.5 -76q0 -45 -31 -76t-76 -31t-75.5 30.5t-30.5 76.5z" />
<glyph unicode="&#xf8;" horiz-adv-x="1241" d="M31 -57l176 211q-73 77 -113.5 181t-40.5 214q0 244 165.5 414t402.5 170q89 0 170 -26t149 -75l168 201l92 -72l-172 -207q77 -78 118.5 -181.5t41.5 -217.5q0 -242 -167 -414t-411 -172q-87 0 -163.5 25.5t-153.5 79.5l-178 -211zM201 551q0 -84 23.5 -156t70.5 -135 l557 666q-41 35 -101 54t-128 19q-180 0 -301 -127t-121 -321zM381 180q53 -39 107.5 -57.5t119.5 -18.5q189 0 310.5 126.5t121.5 324.5q0 82 -24 154t-74 141z" />
<glyph unicode="&#xf9;" horiz-adv-x="1143" d="M109 420v124l8 8h52l8 -8v-124l-8 -8h-52zM109 688v124l8 8h52l8 -8v-124l-8 -8h-52zM109 956v120l8 8h52l8 -8v-120l-8 -8h-52zM117 272l68 20q21 -65 52 -108q-41 -40 -60 -40q-60 102 -60 128zM286 1597h152l209 -350h-92zM293 48q28 56 40 56q39 -22 108 -36l4 -4 q-5 -64 -20 -64zM561 72q76 32 104 56h8l36 -48v-4q-39 -40 -128 -68q-8 9 -20 64zM745 224l52 108q60 -20 60 -32l-56 -112zM869 8v140l8 8h52l8 -8v-140l-8 -8h-52zM869 316v140l8 8h52l8 -8v-140l-8 -8h-52zM869 624v144l8 8h52l8 -8v-144l-8 -8h-52zM869 932v144l8 8h52 l8 -8v-144l-8 -8h-52z" />
<glyph unicode="&#xfa;" horiz-adv-x="1143" d="M109 420v124l8 8h52l8 -8v-124l-8 -8h-52zM109 688v124l8 8h52l8 -8v-124l-8 -8h-52zM109 956v120l8 8h52l8 -8v-120l-8 -8h-52zM117 272l68 20q21 -65 52 -108q-41 -40 -60 -40q-60 102 -60 128zM293 48q28 56 40 56q39 -22 108 -36l4 -4q-5 -64 -20 -64zM397 1247 l209 350h152l-269 -350h-92zM561 72q76 32 104 56h8l36 -48v-4q-39 -40 -128 -68q-8 9 -20 64zM745 224l52 108q60 -20 60 -32l-56 -112zM869 8v140l8 8h52l8 -8v-140l-8 -8h-52zM869 316v140l8 8h52l8 -8v-140l-8 -8h-52zM869 624v144l8 8h52l8 -8v-144l-8 -8h-52zM869 932 v144l8 8h52l8 -8v-144l-8 -8h-52z" />
<glyph unicode="&#xfb;" horiz-adv-x="1143" d="M109 420v124l8 8h52l8 -8v-124l-8 -8h-52zM109 688v124l8 8h52l8 -8v-124l-8 -8h-52zM109 956v120l8 8h52l8 -8v-120l-8 -8h-52zM117 272l68 20q21 -65 52 -108q-41 -40 -60 -40q-60 102 -60 128zM246 1247l200 350h152l200 -350h-92l-184 264l-184 -264h-92zM293 48 q28 56 40 56q39 -22 108 -36l4 -4q-5 -64 -20 -64zM561 72q76 32 104 56h8l36 -48v-4q-39 -40 -128 -68q-8 9 -20 64zM745 224l52 108q60 -20 60 -32l-56 -112zM869 8v140l8 8h52l8 -8v-140l-8 -8h-52zM869 316v140l8 8h52l8 -8v-140l-8 -8h-52zM869 624v144l8 8h52l8 -8 v-144l-8 -8h-52zM869 932v144l8 8h52l8 -8v-144l-8 -8h-52z" />
<glyph unicode="&#xfc;" horiz-adv-x="1143" d="M109 420v124l8 8h52l8 -8v-124l-8 -8h-52zM109 688v124l8 8h52l8 -8v-124l-8 -8h-52zM109 956v120l8 8h52l8 -8v-120l-8 -8h-52zM117 272l68 20q21 -65 52 -108q-41 -40 -60 -40q-60 102 -60 128zM266 1313v164h141v-164h-141zM293 48q28 56 40 56q39 -22 108 -36l4 -4 q-5 -64 -20 -64zM561 72q76 32 104 56h8l36 -48v-4q-39 -40 -128 -68q-8 9 -20 64zM635 1313v164h143v-164h-143zM745 224l52 108q60 -20 60 -32l-56 -112zM869 8v140l8 8h52l8 -8v-140l-8 -8h-52zM869 316v140l8 8h52l8 -8v-140l-8 -8h-52zM869 624v144l8 8h52l8 -8v-144 l-8 -8h-52zM869 932v144l8 8h52l8 -8v-144l-8 -8h-52z" />
<glyph unicode="&#xfd;" horiz-adv-x="944" d="M-33 -125l64 24q28 -75 56 -108v-8l-48 -32h-4q-59 76 -68 124zM-33 450v126l8 8h52l8 -8v-126l-8 -8h-52zM-33 723v127l8 8h52l8 -8v-127l-8 -8h-52zM-33 996v123l8 8h52l8 -8v-123l-8 -8h-52zM-25 299l64 20q35 -87 56 -110q-42 -41 -60 -41q-52 87 -60 131zM135 -353 q18 36 44 56q29 -30 100 -56l4 -4v-4q-16 -60 -24 -60q-48 11 -124 68zM151 70q27 57 36 57q43 -27 112 -45v-4q-8 -54 -16 -65q-96 26 -132 57zM177 1247l209 350h152l-269 -350h-92zM403 -377q0 9 88 24q0 6 32 12l24 -64q-64 -32 -136 -32l-8 8v52zM419 78q69 13 120 37 q28 -53 28 -65q-85 -40 -136 -41zM623 -277l80 96h4q52 -30 52 -36q-15 -38 -88 -108h-8q0 8 -40 48zM631 193l68 106l60 -33q-28 -57 -72 -118h-8q-40 30 -48 45zM751 -65q22 124 28 124h52l8 -8v-8q-8 -128 -28 -128zM771 195v124l8 8h52l8 -8v-124l-8 -8h-52zM771 463 v124l8 8h52l8 -8v-124l-8 -8h-52zM771 731v124l8 8h52l8 -8v-124l-8 -8h-52zM771 999v120l8 8h52l8 -8v-120l-8 -8h-52z" />
<glyph unicode="&#xfe;" horiz-adv-x="1290" d="M109 -356v1812h143l-4 -536q60 93 171.5 148.5t237.5 55.5q246 0 411 -164t165 -401q0 -254 -160 -421t-405 -167q-134 0 -241.5 52.5t-174.5 150.5v-530h-143zM248 551q0 -183 125 -316t291 -133q173 0 297 126.5t124 310.5q0 194 -124 324t-302 130q-165 0 -288 -131 t-123 -311z" />
<glyph unicode="&#xff;" horiz-adv-x="944" d="M-33 -125l64 24q28 -75 56 -108v-8l-48 -32h-4q-59 76 -68 124zM-33 450v126l8 8h52l8 -8v-126l-8 -8h-52zM-33 723v127l8 8h52l8 -8v-127l-8 -8h-52zM-33 996v123l8 8h52l8 -8v-123l-8 -8h-52zM-25 299l64 20q35 -87 56 -110q-42 -41 -60 -41q-52 87 -60 131zM46 1313 v164h141v-164h-141zM135 -353q18 36 44 56q29 -30 100 -56l4 -4v-4q-16 -60 -24 -60q-48 11 -124 68zM151 70q27 57 36 57q43 -27 112 -45v-4q-8 -54 -16 -65q-96 26 -132 57zM403 -377q0 9 88 24q0 6 32 12l24 -64q-64 -32 -136 -32l-8 8v52zM415 1313v164h143v-164h-143z M419 78q69 13 120 37q28 -53 28 -65q-85 -40 -136 -41zM623 -277l80 96h4q52 -30 52 -36q-15 -38 -88 -108h-8q0 8 -40 48zM631 193l68 106l60 -33q-28 -57 -72 -118h-8q-40 30 -48 45zM751 -65q22 124 28 124h52l8 -8v-8q-8 -128 -28 -128zM771 195v124l8 8h52l8 -8v-124 l-8 -8h-52zM771 463v124l8 8h52l8 -8v-124l-8 -8h-52zM771 731v124l8 8h52l8 -8v-124l-8 -8h-52zM771 999v120l8 8h52l8 -8v-120l-8 -8h-52z" />
<glyph unicode="&#x152;" horiz-adv-x="2232" d="M61 737q0 152 58.5 290t169.5 247q107 105 235.5 158t278.5 53q184 0 334 -74t256 -217v262h755v-143h-612v-510h612v-144h-612v-518h612v-141h-755v260q-124 -148 -268 -218.5t-324 -70.5q-314 0 -527 220.5t-213 545.5zM211 735q0 -266 173 -446t427 -180 q248 0 419 182t171 448q0 248 -176 427.5t-424 179.5q-101 0 -194.5 -34.5t-172.5 -101.5q-104 -88 -163.5 -215t-59.5 -260z" />
<glyph unicode="&#x153;" horiz-adv-x="2228" d="M53 549q0 244 167 414t407 170q155 0 283 -78.5t204 -220.5q82 141 213.5 220t286.5 79q247 0 404 -174t157 -453v-4h-987q13 -176 131 -287t289 -111q124 0 222 63t152 177h158q-73 -181 -212.5 -278t-325.5 -97q-161 0 -283.5 75.5t-204.5 223.5q-78 -149 -201.5 -224 t-289.5 -75q-240 0 -405 170t-165 410zM201 551q0 -190 121 -318.5t301 -128.5q177 0 297 128.5t120 320.5q0 195 -121.5 320.5t-308.5 125.5q-168 0 -288.5 -129t-120.5 -319zM1192 625h831q-36 178 -145 276t-268 98q-165 0 -281 -103.5t-137 -270.5z" />
<glyph unicode="&#x178;" horiz-adv-x="981" d="M-49 1436l60 28l60 -120l-60 -32q-39 68 -60 124zM63 1663v164h141v-164h-141zM71 1196l60 28l60 -120q-49 -28 -64 -28q-56 108 -56 120zM187 956q52 28 64 28q56 -108 56 -120v-4l-60 -24h-4zM307 716l60 28l24 -48h4q17 48 28 48q56 -25 56 -32q-52 -100 -52 -112 v-112l-8 -8h-56l-8 8v120zM355 8v68l8 8h56l8 -8v-68l-8 -8h-56zM355 220v124l8 8h56l8 -8v-124l-8 -8h-56zM432 1663v164h143v-164h-143zM475 864q56 120 68 120q56 -25 56 -32l-56 -116h-4q-12 0 -64 28zM595 1104q56 117 64 120q56 -24 56 -36q-52 -112 -64 -112z M715 1348q55 116 64 116q56 -25 56 -32l-60 -120q-60 27 -60 36z" />
<glyph unicode="&#x2c6;" horiz-adv-x="1024" d="M236 1247l200 350h152l200 -350h-92l-184 264l-184 -264h-92z" />
<glyph unicode="&#x2dc;" horiz-adv-x="1024" d="M223 1290q21 90 71.5 137.5t123.5 47.5q16 0 29 -2.5t24 -6.5l96 -30q13 -5 28 -8t28 -3q33 0 56 17.5t40 56.5h82q-26 -91 -74 -137.5t-117 -46.5q-14 0 -30 2.5t-35 7.5l-97 31q-15 4 -27.5 6t-25.5 2q-30 0 -53.5 -19t-38.5 -55h-80z" />
<glyph unicode="&#x2000;" horiz-adv-x="986" />
<glyph unicode="&#x2001;" horiz-adv-x="1972" />
<glyph unicode="&#x2002;" horiz-adv-x="986" />
<glyph unicode="&#x2003;" horiz-adv-x="1972" />
<glyph unicode="&#x2004;" horiz-adv-x="657" />
<glyph unicode="&#x2005;" horiz-adv-x="493" />
<glyph unicode="&#x2006;" horiz-adv-x="328" />
<glyph unicode="&#x2007;" horiz-adv-x="328" />
<glyph unicode="&#x2008;" horiz-adv-x="246" />
<glyph unicode="&#x2009;" horiz-adv-x="394" />
<glyph unicode="&#x200a;" horiz-adv-x="109" />
<glyph unicode="&#x2010;" horiz-adv-x="1527" d="M161 524v52l8 8h120l8 -8v-52l-8 -8h-120zM425 524v52l8 8h124l8 -8v-52l-8 -8h-124zM693 524v52l8 8h124l8 -8v-52l-8 -8h-124zM961 524v52l8 8h124l8 -8v-52l-8 -8h-124zM1229 524v52l8 8h120l8 -8v-52l-8 -8h-120z" />
<glyph unicode="&#x2011;" horiz-adv-x="1527" d="M161 524v52l8 8h120l8 -8v-52l-8 -8h-120zM425 524v52l8 8h124l8 -8v-52l-8 -8h-124zM693 524v52l8 8h124l8 -8v-52l-8 -8h-124zM961 524v52l8 8h124l8 -8v-52l-8 -8h-124zM1229 524v52l8 8h120l8 -8v-52l-8 -8h-120z" />
<glyph unicode="&#x2012;" horiz-adv-x="1527" d="M161 524v52l8 8h120l8 -8v-52l-8 -8h-120zM425 524v52l8 8h124l8 -8v-52l-8 -8h-124zM693 524v52l8 8h124l8 -8v-52l-8 -8h-124zM961 524v52l8 8h124l8 -8v-52l-8 -8h-124zM1229 524v52l8 8h120l8 -8v-52l-8 -8h-120z" />
<glyph unicode="&#x2013;" horiz-adv-x="1024" d="M0 492v112h1024v-112h-1024z" />
<glyph unicode="&#x2014;" horiz-adv-x="2048" d="M0 492v112h2048v-112h-2048z" />
<glyph unicode="&#x2018;" horiz-adv-x="397" d="M78 1456h141l156 -428h-144z" />
<glyph unicode="&#x2019;" horiz-adv-x="397" d="M25 1028l153 428h144l-156 -428h-141z" />
<glyph unicode="&#x201a;" horiz-adv-x="397" d="M25 -162l153 428h144l-156 -428h-141z" />
<glyph unicode="&#x201c;" horiz-adv-x="692" d="M78 1456h141l156 -428h-144zM371 1456h143l154 -428h-142z" />
<glyph unicode="&#x201d;" horiz-adv-x="692" d="M25 1028l153 428h144l-156 -428h-141zM317 1028l156 428h141l-153 -428h-144z" />
<glyph unicode="&#x201e;" horiz-adv-x="692" d="M25 -162l153 428h144l-156 -428h-141zM317 -162l156 428h141l-153 -428h-144z" />
<glyph unicode="&#x2022;" horiz-adv-x="1208" d="M307 762q0 123 87 209t210 86q122 0 208.5 -86.5t86.5 -208.5t-87.5 -209.5t-209.5 -87.5q-123 0 -209 87t-86 210z" />
<glyph unicode="&#x2026;" horiz-adv-x="2048" d="M270 9v87h114v-87h-114zM952 9v87h114v-87h-114zM1636 9v87h114v-87h-114z" />
<glyph unicode="&#x202f;" horiz-adv-x="394" />
<glyph unicode="&#x2039;" horiz-adv-x="631" d="M115 549l245 321h138l-248 -321l248 -320h-138z" />
<glyph unicode="&#x203a;" horiz-adv-x="631" d="M133 229l248 320l-248 321h137l246 -321l-246 -320h-137z" />
<glyph unicode="&#x205f;" horiz-adv-x="493" />
<glyph unicode="&#x20ac;" d="M-6 532l26 111h119v168h-137l27 111h110v22q0 141 20 212.5t66 133.5q72 95 176.5 146t229.5 51q210 0 344 -129.5t143 -284.5h-145q-22 136 -112.5 210.5t-229.5 74.5q-165 0 -257.5 -101.5t-92.5 -283.5v-51h639l-27 -111h-612v-168h591l-26 -111h-565v-51 q0 -181 92.5 -282t257.5 -101q134 0 222.5 69t115.5 195h147q-8 -56 -25 -101t-47 -87q-69 -97 -176.5 -150t-236.5 -53q-125 0 -229 50.5t-179 146.5q-44 56 -64 136.5t-20 207.5v20h-145z" />
<glyph unicode="&#x2122;" horiz-adv-x="1706" d="M264 1397v57h430v-57h-172v-473h-82v473h-176zM821 924v530h117l166 -422l156 422h116v-530h-71v467l-177 -467h-49l-186 467v-467h-72z" />
<glyph unicode="&#xe000;" horiz-adv-x="1125" d="M0 0v1125h1125v-1125h-1125z" />
</font>
</defs>
</svg>
